<?xml version="1.0" encoding="utf-8"?>
<!-- Generator: Adobe Illustrator 16.0.0, SVG Export Plug-In . SVG Version: 6.00 Build 0)  -->
<!DOCTYPE svg PUBLIC "-//W3C//DTD SVG 1.1//EN" "http://www.w3.org/Graphics/SVG/1.1/DTD/svg11.dtd">
<svg version="1.1" id="레이어_1" xmlns="http://www.w3.org/2000/svg" xmlns:xlink="http://www.w3.org/1999/xlink" x="0px"
	 y="0px" width="10px" height="10px" viewBox="0 0 10 10" enable-background="new 0 0 10 10" xml:space="preserve">
<g>
	<path fill-rule="evenodd" clip-rule="evenodd" fill="#FEE178" d="M4.999,0c0.059,0,0.118,0,0.177,0
		c0.038,0.016,0.077,0.016,0.116,0c0.04,0,0.079,0,0.117,0c0.099,0.02,0.199,0.016,0.299,0.023C6.164,0.06,6.593,0.2,7.008,0.38
		c0.558,0.24,1.057,0.57,1.488,1c0.027,0.027,0.062,0.05,0.066,0.093C8.56,1.509,8.531,1.528,8.509,1.551
		c-1.113,1.11-2.224,2.223-3.336,3.334c-0.03,0.03-0.058,0.063-0.094,0.086c-0.03,0.021-0.063,0.038-0.096,0.003
		c-0.006-0.01-0.01-0.021-0.012-0.032C4.958,4.888,4.958,4.832,4.958,4.776c0-1.527,0-3.055,0.001-4.583
		C4.959,0.127,4.941,0.055,4.999,0z"/>
	<path fill-rule="evenodd" clip-rule="evenodd" fill="#0CA7EC" d="M0,5.058c0-0.02,0-0.039,0-0.059c0.042-0.049,0.1-0.04,0.154-0.04
		c0.521-0.001,1.042-0.001,1.563-0.001c1.021,0,2.044,0,3.065,0c0.059,0,0.118-0.004,0.175,0.015
		c0.011,0.003,0.021,0.009,0.03,0.015c0.01,0.006,0.017,0.014,0.02,0.024C5,5.067,4.956,5.101,4.921,5.137
		C3.809,6.25,2.696,7.362,1.583,8.475c-0.032,0.031-0.061,0.068-0.11,0.076C1.438,8.553,1.412,8.531,1.39,8.508
		C0.658,7.754,0.204,6.86,0.033,5.824C0.011,5.688,0.025,5.547,0,5.409c0-0.045,0-0.091,0-0.137c0.021-0.036,0.005-0.076,0.01-0.114
		C0.005,5.125,0.02,5.09,0,5.058z"/>
	<path fill-rule="evenodd" clip-rule="evenodd" fill="#F61E78" d="M5.038,10c-0.013,0-0.025,0-0.039,0
		c-0.048-0.043-0.04-0.101-0.041-0.155c-0.001-0.501,0-1.002,0-1.503c0-1.039,0-2.077,0-3.115C4.957,5.154,4.96,5.084,4.996,5.019
		l0.006-0.004C5.038,4.991,5.063,5.018,5.09,5.035c0.026,0.019,0.048,0.044,0.071,0.066c1.09,1.091,2.181,2.181,3.27,3.271
		c0.053,0.053,0.128,0.099,0.102,0.195c-0.097,0.129-0.221,0.229-0.344,0.33C7.534,9.437,6.789,9.781,5.959,9.945
		C5.793,9.979,5.624,9.977,5.456,9.99C5.434,9.991,5.41,9.982,5.391,10c-0.046,0-0.092,0-0.138,0
		C5.217,9.979,5.177,9.995,5.139,9.989C5.105,9.994,5.07,9.979,5.038,10z"/>
	<path fill-rule="evenodd" clip-rule="evenodd" fill="#45C4FE" d="M4.993,4.999c-1.665,0-3.329,0-4.993,0c0-0.045,0-0.091,0-0.137
		c0.016-0.039,0.016-0.078,0-0.117c0-0.059,0-0.117,0-0.176C0.03,4.372,0.023,4.17,0.065,3.973c0.177-0.824,0.532-1.56,1.072-2.206
		C1.233,1.652,1.326,1.535,1.452,1.45c0.053-0.007,0.082,0.03,0.114,0.063c0.313,0.308,0.621,0.62,0.932,0.93
		c0.578,0.575,1.153,1.154,1.731,1.729c0.235,0.233,0.469,0.47,0.703,0.704c0.031,0.031,0.05,0.067,0.062,0.108l0.003-0.003
		C5,4.985,5.002,4.989,5.005,4.992C5.001,4.995,4.997,4.997,4.993,4.999z"/>
	<path fill-rule="evenodd" clip-rule="evenodd" fill="#AFD06F" d="M4.994,4.984C4.789,4.781,4.581,4.58,4.377,4.376
		c-0.97-0.97-1.938-1.939-2.907-2.909C1.447,1.413,1.494,1.393,1.521,1.365c0.296-0.301,0.636-0.544,1.001-0.751
		c0.476-0.27,0.982-0.457,1.52-0.561C4.207,0.021,4.376,0.022,4.544,0.01C4.56,0.009,4.576,0.013,4.59,0c0.045,0,0.091,0,0.137,0
		c0.042,0.02,0.088,0.005,0.132,0.01C4.893,0.005,4.928,0.02,4.961,0c0.013,0,0.025,0,0.038,0c0,1.612,0.001,3.226,0,4.838
		C4.999,4.887,4.996,4.936,4.994,4.984z"/>
	<path fill-rule="evenodd" clip-rule="evenodd" fill="#FE776B" d="M8.519,8.549c-0.001-0.045-0.032-0.069-0.06-0.097
		c-1.127-1.127-2.253-2.253-3.38-3.38C5.056,5.05,5.034,5.025,5.002,5.015C4.999,5.009,4.996,5.004,4.993,4.999l0.009-0.001
		c0.069-0.031,0.143-0.041,0.219-0.041c1.531,0.001,3.063,0.001,4.595,0.002c0.063,0,0.133-0.017,0.185,0.04
		c0,0.078,0,0.157,0,0.234C9.984,5.25,9.992,5.271,9.989,5.288C9.99,5.304,9.986,5.319,10,5.332c0,0.032,0,0.064,0,0.097
		C9.979,5.521,9.983,5.615,9.976,5.708C9.933,6.177,9.792,6.619,9.602,7.046c-0.242,0.539-0.561,1.027-0.98,1.446
		C8.594,8.521,8.571,8.565,8.519,8.549z"/>
	<path fill-rule="evenodd" clip-rule="evenodd" fill="#FEB44C" d="M10,4.999c-1.666,0-3.332,0-4.998-0.001
		c-0.004-0.005-0.006-0.01-0.005-0.017c0.051-0.007,0.076-0.048,0.107-0.08c1.113-1.112,2.227-2.226,3.341-3.338
		C8.477,1.532,8.5,1.488,8.552,1.484c0.053-0.013,0.075,0.029,0.104,0.058c0.28,0.28,0.511,0.599,0.708,0.941
		c0.301,0.524,0.509,1.082,0.601,1.682C9.986,4.312,9.975,4.462,10,4.609c0,0.038,0,0.077,0,0.117
		C9.979,4.763,9.995,4.803,9.989,4.841C9.994,4.874,9.979,4.909,10,4.941C10,4.961,10,4.98,10,4.999z"/>
	<path fill-rule="evenodd" clip-rule="evenodd" fill="#1365C1" d="M4.996,5.019c0.001,0.039,0.003,0.077,0.003,0.116
		c0.001,1.622,0,3.243,0,4.865c-0.045,0-0.091,0-0.137,0c-0.039-0.016-0.078-0.016-0.117,0c-0.019,0-0.038,0-0.059,0
		c-0.013-0.013-0.025-0.013-0.039,0c-0.025,0-0.052,0-0.077,0C4.369,9.969,4.164,9.976,3.964,9.932
		c-0.818-0.179-1.55-0.534-2.195-1.068C1.686,8.795,1.605,8.725,1.532,8.646C1.504,8.615,1.47,8.587,1.476,8.538
		C1.5,8.512,1.522,8.483,1.548,8.459c1.125-1.126,2.25-2.251,3.375-3.376C4.946,5.061,4.972,5.04,4.996,5.019z"/>
	<path fill-rule="evenodd" clip-rule="evenodd" fill="#C2DB90" d="M4.862,0.019C4.816,0.013,4.768,0.035,4.727,0
		c0.045,0,0.091,0,0.136,0C4.875,0.007,4.875,0.013,4.862,0.019z"/>
	<path fill-rule="evenodd" clip-rule="evenodd" fill="#FEE99C" d="M5.292,0C5.253,0.029,5.214,0.027,5.176,0
		C5.214,0,5.253,0,5.292,0z"/>
	<path fill-rule="evenodd" clip-rule="evenodd" fill="#FEC779" d="M9.98,4.843C9.985,4.804,9.966,4.761,10,4.727
		c0,0.038,0,0.077,0,0.116C9.993,4.855,9.986,4.855,9.98,4.843z"/>
	<path fill-rule="evenodd" clip-rule="evenodd" fill="#4A88CF" d="M4.745,10c0.039-0.031,0.078-0.026,0.117,0
		C4.823,10,4.784,10,4.745,10z"/>
	<path fill-rule="evenodd" clip-rule="evenodd" fill="#F85498" d="M5.138,9.98C5.176,9.986,5.219,9.965,5.253,10
		c-0.039,0-0.077,0-0.116,0C5.124,9.992,5.124,9.986,5.138,9.98z"/>
	<path fill-rule="evenodd" clip-rule="evenodd" fill="#B7D47C" d="M4.862,0.019c0-0.006,0-0.013,0-0.019c0.033,0,0.065,0,0.099,0
		C4.932,0.028,4.896,0.017,4.862,0.019z"/>
	<path fill-rule="evenodd" clip-rule="evenodd" fill="#FEBF66" d="M9.98,4.843c0.007,0,0.013,0,0.02,0c0,0.033,0,0.065,0,0.099
		C9.972,4.912,9.982,4.876,9.98,4.843z"/>
	<path fill-rule="evenodd" clip-rule="evenodd" fill="#F73384" d="M5.138,9.98C5.137,9.987,5.137,9.993,5.137,10
		c-0.033,0-0.065,0-0.099,0C5.067,9.972,5.104,9.981,5.138,9.98z"/>
	<path fill-rule="evenodd" clip-rule="evenodd" fill="#FEA8A0" d="M9.982,5.293C9.98,5.271,9.979,5.249,10,5.233
		c0,0.02,0,0.039,0,0.059C9.994,5.303,9.988,5.304,9.982,5.293z"/>
	<path fill-rule="evenodd" clip-rule="evenodd" fill="#FEBDB7" d="M9.982,5.293c0.006,0,0.012,0,0.018-0.001c0,0.014,0,0.026,0,0.04
		C9.982,5.324,9.981,5.31,9.982,5.293z"/>
	<path fill-rule="evenodd" clip-rule="evenodd" fill="#9ABDE4" d="M4.647,10c0.014-0.025,0.026-0.022,0.039,0
		C4.674,10,4.661,10,4.647,10z"/>
</g>
</svg>
