<?xml version="1.0" encoding="utf-8"?>
<!-- Generator: Adobe Illustrator 16.0.0, SVG Export Plug-In . SVG Version: 6.00 Build 0)  -->
<!DOCTYPE svg PUBLIC "-//W3C//DTD SVG 1.1//EN" "http://www.w3.org/Graphics/SVG/1.1/DTD/svg11.dtd">
<svg version="1.1" id="레이어_1" xmlns="http://www.w3.org/2000/svg" xmlns:xlink="http://www.w3.org/1999/xlink" x="0px"
	 y="0px" width="10px" height="10px" viewBox="0 0 10 10" enable-background="new 0 0 10 10" xml:space="preserve">
<g>
	<path fill="#FFFFFF" d="M8,1c0.552,0,1,0.449,1,1v6c0,0.552-0.448,1-1,1H2C1.449,9,1,8.552,1,8V2c0-0.551,0.449-1,1-1H8 M8,0H2
		C0.9,0,0,0.9,0,2v6c0,1.1,0.9,2,2,2h6c1.1,0,2-0.9,2-2V2C10,0.9,9.1,0,8,0L8,0z"/>
</g>
</svg>
