<?xml version="1.0" encoding="utf-8"?>
<!-- Generator: Adobe Illustrator 16.0.0, SVG Export Plug-In . SVG Version: 6.00 Build 0)  -->
<!DOCTYPE svg PUBLIC "-//W3C//DTD SVG 1.1//EN" "http://www.w3.org/Graphics/SVG/1.1/DTD/svg11.dtd">
<svg version="1.1" id="레이어_1" xmlns="http://www.w3.org/2000/svg" xmlns:xlink="http://www.w3.org/1999/xlink" x="0px"
	 y="0px" width="10px" height="10px" viewBox="0 0 10 10" enable-background="new 0 0 10 10" xml:space="preserve">
<g>
	<path fill="#FFFFFF" d="M5,1.053c0.042,0.048,0.096,0.123,0.154,0.234l3.738,7.175C9.024,8.717,9.003,8.85,8.99,8.871
		C8.965,8.913,8.809,9,8.492,9H1.508C1.191,9,1.036,8.913,1.01,8.871C0.997,8.85,0.976,8.718,1.108,8.463l3.738-7.176
		C4.904,1.176,4.958,1.101,5,1.053 M5,0C4.623,0,4.246,0.275,3.959,0.825L0.221,8.001C-0.351,9.102,0.228,10,1.508,10h6.984
		c1.279,0,1.859-0.898,1.287-1.999L6.041,0.825C5.755,0.275,5.378,0,5,0L5,0z"/>
</g>
</svg>
