<?xml version="1.0" standalone="no"?>
<!DOCTYPE svg PUBLIC "-//W3C//DTD SVG 20010904//EN"
 "http://www.w3.org/TR/2001/REC-SVG-20010904/DTD/svg10.dtd">
<svg version="1.0" xmlns="http://www.w3.org/2000/svg"
 width="1276.000000pt" height="1280.000000pt" viewBox="0 0 1276.000000 1280.000000"
 preserveAspectRatio="xMidYMid meet">
<metadata>
Created by potrace 1.15, written by Peter Selinger 2001-2017
</metadata>
<g transform="translate(0.000000,1280.000000) scale(0.100000,-0.100000)"
fill="#000000" stroke="none">
<path d="M10358 12739 c-10 -5 -18 -7 -18 -3 0 3 -6 2 -12 -3 -7 -5 -31 -11
-53 -12 -22 -2 -42 -6 -45 -11 -3 -4 -22 -10 -42 -14 -21 -4 -38 -11 -38 -16
0 -6 -11 -10 -25 -10 -14 0 -25 -4 -25 -10 0 -5 -11 -10 -25 -10 -14 0 -25 -6
-25 -13 0 -7 -10 -13 -22 -14 -11 -1 -24 -6 -27 -11 -3 -5 -16 -12 -28 -16
-13 -4 -23 -12 -23 -17 0 -5 -6 -9 -14 -9 -8 0 -16 -5 -18 -11 -2 -5 -11 -11
-20 -13 -10 -1 -25 -11 -35 -23 -10 -11 -28 -23 -40 -27 -13 -4 -23 -12 -23
-17 0 -5 -5 -9 -11 -9 -14 0 -39 -25 -39 -39 0 -6 -6 -11 -14 -11 -8 0 -16 -5
-18 -11 -2 -5 -11 -11 -20 -13 -10 -1 -26 -12 -36 -24 -11 -12 -24 -22 -31
-22 -6 0 -11 -7 -11 -15 0 -8 -7 -15 -16 -15 -8 0 -12 -4 -9 -10 3 -5 -1 -10
-9 -10 -9 0 -16 -8 -17 -17 0 -11 -3 -13 -6 -6 -3 8 -16 0 -37 -22 -19 -19
-38 -35 -45 -35 -6 0 -10 -6 -8 -12 1 -7 -4 -12 -10 -11 -7 2 -13 -4 -13 -12
0 -8 -5 -15 -11 -15 -14 0 -39 -25 -39 -39 0 -6 -5 -11 -11 -11 -14 0 -39 -25
-39 -39 0 -6 -7 -11 -15 -11 -8 0 -15 -5 -15 -11 0 -14 -25 -39 -39 -39 -6 0
-11 -7 -11 -15 0 -8 -7 -15 -16 -15 -8 0 -12 -4 -9 -10 3 -5 -1 -10 -9 -10 -9
0 -16 -7 -16 -15 0 -8 -4 -14 -8 -12 -10 3 -268 -255 -264 -265 1 -4 -3 -8 -9
-8 -6 0 -28 -18 -50 -40 -22 -22 -47 -40 -57 -41 -10 0 -12 -3 -5 -6 10 -3 10
-7 0 -18 -7 -7 -15 -11 -19 -8 -5 2 -8 0 -8 -6 0 -16 -49 -61 -68 -62 -10 0
-12 -3 -5 -6 10 -3 10 -7 0 -18 -7 -7 -16 -11 -20 -8 -5 3 -11 -4 -14 -16 -3
-11 -14 -23 -24 -26 -10 -4 -19 -11 -19 -16 0 -5 -8 -9 -17 -9 -13 0 -15 -2
-5 -8 9 -6 6 -12 -13 -20 -14 -6 -25 -20 -25 -29 0 -15 -2 -16 -10 -3 -8 13
-10 12 -10 -2 0 -10 -4 -18 -9 -18 -5 0 -13 -10 -16 -21 -5 -14 -10 -18 -14
-10 -5 7 -14 -1 -26 -23 -13 -24 -22 -31 -27 -23 -5 8 -8 7 -8 -5 0 -10 -4
-18 -9 -18 -5 0 -13 -10 -16 -21 -5 -14 -10 -18 -14 -10 -5 7 -14 -1 -26 -23
-13 -24 -22 -31 -27 -23 -5 8 -8 7 -8 -5 0 -10 -4 -18 -9 -18 -5 0 -13 -10
-16 -21 -5 -14 -10 -18 -14 -10 -5 7 -14 -1 -26 -23 -13 -24 -22 -31 -27 -23
-5 8 -8 7 -8 -5 0 -10 -7 -18 -15 -18 -9 0 -15 -9 -15 -22 0 -13 -4 -18 -8
-12 -4 6 -13 4 -24 -7 -12 -13 -13 -19 -5 -23 7 -2 2 -5 -10 -5 -13 -1 -23 -7
-23 -16 0 -8 -7 -15 -15 -15 -9 0 -15 -9 -15 -22 0 -19 -2 -20 -10 -8 -8 13
-10 12 -10 -2 0 -10 -8 -18 -17 -18 -15 0 -16 -2 -3 -10 12 -8 11 -10 -7 -10
-14 0 -23 -6 -23 -15 0 -8 -7 -15 -15 -15 -9 0 -15 -9 -15 -22 0 -19 -2 -20
-10 -8 -8 13 -10 12 -10 -2 0 -10 -8 -18 -17 -18 -15 0 -16 -2 -3 -10 12 -8
11 -10 -7 -10 -14 0 -23 -6 -23 -15 0 -8 -7 -15 -15 -15 -9 0 -15 -9 -15 -22
0 -19 -2 -20 -10 -8 -8 13 -10 12 -10 -2 0 -10 -8 -18 -17 -18 -15 0 -16 -2
-3 -10 13 -8 12 -10 -2 -10 -10 0 -27 -9 -38 -20 -11 -11 -20 -28 -20 -37 0
-11 -3 -14 -8 -7 -4 6 -13 4 -24 -8 -12 -12 -14 -18 -5 -19 6 0 2 -5 -10 -11
-13 -6 -23 -15 -23 -20 0 -4 -8 -8 -17 -8 -13 0 -14 -3 -6 -8 8 -5 1 -14 -23
-27 -22 -12 -30 -21 -23 -26 8 -4 4 -9 -10 -14 -11 -3 -21 -11 -21 -16 0 -5
-8 -9 -17 -9 -13 0 -14 -3 -6 -8 8 -5 1 -14 -23 -27 -22 -12 -30 -21 -23 -26
8 -4 4 -9 -10 -14 -11 -3 -21 -11 -21 -16 0 -5 -8 -9 -17 -9 -14 0 -15 -2 -5
-9 10 -6 8 -10 -8 -14 -12 -3 -24 -15 -27 -27 -4 -16 -8 -18 -14 -8 -7 11 -9
11 -9 0 0 -17 -25 -42 -42 -42 -10 0 -9 -3 2 -10 13 -8 12 -10 -3 -10 -9 0
-23 -11 -29 -25 -8 -19 -14 -22 -20 -13 -6 10 -8 8 -8 -4 0 -10 -4 -18 -9 -18
-5 0 -13 -10 -16 -21 -5 -14 -10 -18 -14 -10 -5 7 -14 -1 -26 -23 -13 -24 -22
-31 -27 -23 -5 8 -8 7 -8 -5 0 -10 -4 -18 -8 -18 -5 0 -14 -10 -20 -22 -6 -13
-11 -17 -11 -10 -1 8 -7 6 -19 -5 -12 -12 -14 -21 -8 -25 7 -5 4 -8 -6 -8 -23
0 -58 -35 -58 -57 0 -11 -3 -14 -8 -7 -4 6 -13 4 -24 -7 -12 -13 -13 -19 -5
-23 7 -2 4 -5 -5 -5 -23 -1 -58 -36 -58 -58 0 -15 -2 -16 -10 -3 -8 13 -10 12
-10 -2 0 -10 -8 -18 -17 -18 -15 0 -16 -2 -3 -10 12 -8 11 -10 -7 -10 -14 0
-23 -6 -23 -15 0 -8 -7 -15 -15 -15 -9 0 -15 -9 -15 -22 0 -19 -2 -20 -10 -8
-8 13 -10 12 -10 -2 0 -10 -8 -18 -17 -18 -15 0 -16 -2 -3 -10 12 -8 11 -10
-7 -10 -14 0 -23 -6 -23 -15 0 -8 -7 -15 -15 -15 -9 0 -15 -9 -15 -22 0 -13
-4 -18 -8 -12 -4 6 -13 4 -24 -7 -12 -13 -13 -19 -5 -23 7 -2 4 -5 -5 -5 -23
-1 -58 -36 -58 -58 0 -11 -3 -14 -8 -8 -4 7 -24 -6 -49 -32 -24 -24 -37 -43
-30 -43 6 0 -6 -11 -28 -25 -22 -13 -33 -25 -25 -25 10 -1 7 -5 -7 -12 -13 -6
-23 -15 -23 -20 0 -4 -8 -8 -17 -8 -13 0 -15 -2 -5 -8 9 -6 6 -12 -13 -20 -14
-6 -25 -20 -25 -29 0 -15 -2 -16 -10 -3 -7 11 -10 12 -10 2 0 -7 -6 -20 -14
-28 -8 -8 -21 -14 -28 -14 -11 0 -11 -2 0 -9 10 -6 8 -10 -8 -14 -12 -3 -24
-15 -27 -27 -4 -16 -8 -18 -14 -8 -7 11 -9 11 -9 0 0 -7 -6 -20 -14 -28 -8 -8
-21 -14 -28 -14 -11 0 -11 -2 0 -9 10 -6 8 -10 -8 -14 -12 -3 -24 -15 -27 -27
-4 -16 -8 -18 -14 -8 -7 10 -9 9 -9 -4 0 -10 -4 -18 -9 -18 -5 0 -13 -10 -16
-21 -5 -14 -10 -18 -14 -10 -5 7 -14 -1 -26 -23 -13 -24 -22 -31 -27 -23 -5 8
-8 7 -8 -5 0 -10 -4 -18 -8 -18 -5 0 -14 -10 -20 -22 -6 -13 -11 -17 -11 -10
-1 8 -7 6 -19 -5 -12 -12 -14 -21 -8 -25 7 -5 4 -8 -7 -8 -22 0 -57 -35 -57
-57 0 -11 -3 -14 -8 -7 -4 6 -13 4 -24 -7 -12 -13 -13 -19 -5 -23 7 -2 4 -5
-6 -5 -22 -1 -57 -36 -57 -58 0 -11 -3 -14 -8 -7 -4 6 -13 4 -24 -7 -12 -13
-13 -19 -5 -23 7 -2 2 -5 -10 -5 -13 -1 -23 -7 -23 -16 0 -8 -7 -15 -15 -15
-9 0 -15 -9 -15 -22 0 -19 -2 -20 -10 -8 -8 13 -10 12 -10 -2 0 -10 -8 -18
-17 -18 -15 0 -16 -2 -3 -10 13 -8 12 -10 -3 -10 -22 0 -57 -35 -57 -57 0 -11
-3 -14 -8 -7 -4 6 -13 4 -24 -7 -12 -13 -13 -19 -5 -23 7 -2 4 -5 -6 -5 -22
-1 -57 -36 -57 -58 0 -11 -3 -14 -8 -7 -4 6 -13 4 -24 -7 -12 -13 -13 -19 -5
-23 7 -2 4 -5 -6 -5 -22 -1 -57 -36 -57 -58 0 -11 -3 -14 -8 -7 -4 6 -13 4
-24 -8 -12 -12 -14 -18 -5 -19 6 0 2 -5 -10 -11 -13 -6 -23 -15 -23 -20 0 -4
-8 -8 -17 -8 -14 0 -15 -2 -5 -9 10 -6 8 -10 -8 -14 -12 -3 -24 -15 -27 -27
-4 -16 -8 -18 -14 -8 -7 11 -9 11 -9 0 0 -7 -6 -20 -14 -28 -8 -8 -21 -14 -28
-14 -11 0 -11 -2 0 -9 10 -6 8 -10 -8 -14 -12 -3 -24 -15 -27 -27 -4 -16 -8
-18 -14 -8 -7 11 -9 11 -9 0 0 -7 -6 -20 -14 -28 -8 -8 -21 -14 -28 -14 -11 0
-11 -2 0 -9 10 -6 8 -10 -8 -14 -12 -3 -24 -15 -27 -27 -4 -16 -8 -18 -14 -8
-7 11 -9 11 -9 0 0 -17 -25 -42 -42 -42 -10 0 -9 -3 2 -10 13 -8 12 -10 -3
-10 -9 0 -23 -11 -29 -25 -8 -19 -14 -22 -20 -13 -6 10 -8 8 -8 -4 0 -10 -7
-18 -15 -18 -9 0 -15 -10 -16 -22 0 -13 -3 -18 -5 -11 -4 8 -10 7 -23 -5 -11
-11 -13 -20 -7 -24 7 -5 4 -8 -7 -8 -22 0 -57 -35 -58 -57 0 -10 -3 -13 -5 -6
-4 8 -10 7 -23 -5 -11 -11 -13 -20 -7 -24 7 -5 4 -8 -7 -8 -22 0 -57 -35 -57
-57 0 -11 -3 -14 -8 -7 -4 6 -13 4 -24 -7 -12 -13 -13 -19 -5 -23 7 -2 4 -5
-6 -5 -22 -1 -57 -36 -57 -58 0 -11 -3 -14 -8 -7 -4 6 -13 4 -24 -7 -12 -13
-13 -19 -5 -23 7 -2 4 -5 -6 -5 -22 -1 -57 -36 -57 -58 0 -11 -3 -14 -8 -7 -4
6 -13 4 -24 -7 -12 -13 -13 -19 -5 -23 7 -2 4 -5 -6 -5 -22 -1 -57 -36 -57
-58 0 -11 -3 -14 -8 -7 -4 6 -13 4 -24 -7 -12 -13 -13 -19 -5 -23 7 -2 4 -5
-6 -5 -22 -1 -57 -36 -57 -58 0 -15 -2 -16 -9 -4 -8 12 -11 9 -17 -13 -3 -15
-9 -23 -13 -18 -4 6 -11 4 -19 -4 -7 -8 -9 -14 -5 -14 4 -1 -3 -7 -17 -15 -16
-9 -19 -15 -10 -15 9 -1 5 -5 -8 -11 -13 -5 -26 -18 -29 -30 -4 -16 -8 -17
-14 -7 -7 11 -9 11 -9 0 0 -17 -25 -42 -42 -42 -11 0 -11 -2 0 -9 10 -6 8 -10
-8 -14 -12 -3 -24 -15 -27 -27 -4 -16 -8 -18 -14 -8 -7 11 -9 11 -9 0 0 -17
-25 -42 -42 -42 -11 0 -11 -2 0 -9 10 -6 8 -10 -8 -14 -12 -3 -24 -15 -27 -27
-4 -16 -8 -18 -14 -8 -7 11 -9 11 -9 0 0 -17 -25 -42 -42 -42 -10 0 -9 -3 2
-10 13 -8 13 -10 -2 -10 -22 0 -88 -65 -88 -87 0 -11 -3 -14 -8 -7 -4 6 -13 4
-24 -7 -12 -13 -13 -19 -5 -23 7 -2 4 -5 -6 -5 -22 -1 -57 -36 -57 -58 0 -11
-3 -14 -8 -7 -4 6 -13 4 -24 -7 -12 -13 -13 -19 -5 -23 7 -2 4 -5 -6 -5 -22
-1 -57 -36 -57 -58 0 -11 -3 -14 -8 -7 -4 6 -13 4 -24 -7 -12 -13 -13 -19 -5
-23 7 -2 4 -5 -6 -5 -22 -1 -57 -36 -57 -58 0 -11 -3 -14 -8 -7 -4 6 -13 4
-24 -7 -12 -13 -13 -19 -5 -23 7 -2 4 -5 -6 -5 -22 -1 -57 -36 -57 -58 0 -11
-3 -14 -8 -7 -4 6 -13 4 -24 -7 -12 -13 -13 -19 -5 -23 7 -2 4 -5 -6 -5 -22
-1 -57 -36 -57 -58 0 -11 -3 -14 -8 -7 -4 6 -13 4 -24 -7 -12 -13 -13 -19 -5
-23 7 -2 4 -5 -6 -5 -22 -1 -57 -36 -57 -58 0 -14 -2 -15 -9 -4 -6 10 -11 6
-19 -15 -6 -16 -11 -23 -11 -16 -1 10 -4 10 -15 0 -8 -7 -12 -16 -9 -20 2 -5
0 -8 -6 -8 -16 0 -61 -49 -61 -68 0 -15 -2 -15 -10 -2 -7 11 -10 12 -10 2 0
-17 -25 -42 -42 -42 -11 0 -11 -2 0 -9 10 -6 8 -10 -8 -14 -12 -3 -24 -15 -27
-27 -4 -16 -8 -18 -14 -8 -7 11 -9 11 -9 0 0 -17 -25 -42 -42 -42 -11 0 -11
-2 0 -9 10 -6 9 -10 -7 -14 -12 -3 -25 -16 -30 -29 -6 -13 -10 -17 -11 -8 0 9
-6 6 -15 -10 -8 -14 -14 -21 -15 -17 0 4 -6 2 -14 -5 -10 -9 -11 -15 -2 -20 7
-5 5 -8 -6 -8 -19 0 -68 -45 -68 -61 0 -6 -3 -8 -7 -6 -5 3 -14 -1 -21 -9 -10
-11 -10 -14 0 -15 7 0 0 -5 -16 -11 -21 -8 -25 -13 -15 -19 11 -7 10 -9 -4 -9
-22 0 -57 -35 -57 -57 0 -11 -3 -14 -8 -7 -4 6 -13 4 -24 -7 -12 -13 -13 -19
-5 -23 7 -2 4 -5 -6 -5 -22 -1 -57 -36 -57 -58 0 -11 -3 -14 -8 -7 -4 6 -13 4
-24 -7 -12 -13 -13 -19 -5 -23 7 -2 4 -5 -6 -5 -22 -1 -57 -36 -57 -58 0 -11
-3 -14 -8 -7 -4 6 -13 4 -24 -7 -12 -13 -13 -19 -5 -23 7 -2 4 -5 -6 -5 -22
-1 -57 -36 -57 -58 0 -11 -3 -14 -8 -7 -4 6 -13 4 -24 -7 -12 -13 -13 -19 -5
-23 7 -2 4 -5 -6 -5 -22 -1 -57 -36 -57 -58 0 -11 -3 -14 -8 -7 -4 6 -13 4
-24 -7 -12 -13 -13 -19 -5 -23 7 -2 4 -5 -6 -5 -22 -1 -87 -67 -88 -89 0 -10
-3 -12 -6 -5 -3 10 -7 10 -18 0 -7 -7 -11 -15 -8 -20 2 -4 0 -7 -6 -7 -16 0
-61 -49 -61 -68 0 -11 -3 -13 -8 -6 -5 9 -11 8 -20 -2 -7 -8 -9 -14 -5 -14 4
-1 -3 -7 -17 -15 -16 -9 -19 -15 -10 -15 9 -1 5 -5 -8 -11 -13 -5 -26 -18 -29
-30 -4 -16 -8 -17 -14 -7 -7 11 -9 11 -9 0 0 -7 -6 -20 -14 -28 -8 -8 -21 -14
-28 -14 -10 0 -9 -3 2 -10 13 -8 13 -10 -2 -10 -19 0 -68 -45 -68 -61 0 -6 -3
-8 -7 -6 -5 3 -13 -1 -20 -8 -10 -11 -10 -15 0 -18 7 -3 5 -6 -5 -6 -19 -1
-68 -46 -68 -62 0 -6 -3 -8 -7 -6 -5 3 -13 -1 -20 -8 -10 -11 -10 -15 0 -18 7
-3 5 -6 -5 -6 -22 -1 -88 -67 -88 -88 0 -11 -3 -14 -8 -7 -4 6 -13 4 -24 -7
-12 -13 -13 -19 -5 -23 7 -2 4 -5 -6 -5 -22 -1 -57 -36 -57 -58 0 -11 -3 -14
-8 -7 -4 6 -13 4 -24 -7 -12 -13 -13 -19 -5 -23 7 -2 4 -5 -6 -5 -22 -1 -57
-36 -57 -58 0 -11 -3 -14 -8 -7 -4 6 -13 4 -24 -7 -12 -13 -13 -19 -5 -23 7
-2 4 -5 -6 -5 -22 -1 -57 -36 -57 -58 0 -11 -3 -14 -8 -7 -4 6 -13 4 -24 -7
-12 -13 -13 -19 -5 -23 7 -2 4 -5 -6 -5 -22 -1 -57 -36 -57 -58 0 -14 -2 -15
-9 -4 -6 10 -11 6 -19 -15 -6 -16 -11 -23 -11 -16 -1 10 -4 10 -15 0 -8 -7
-12 -16 -9 -20 2 -5 0 -8 -6 -8 -16 0 -61 -49 -62 -68 0 -10 -3 -12 -6 -5 -3
10 -7 10 -18 0 -7 -7 -11 -15 -8 -19 2 -5 0 -8 -6 -8 -16 0 -61 -49 -62 -68 0
-10 -3 -12 -6 -5 -3 10 -7 10 -18 0 -7 -7 -11 -15 -8 -19 2 -5 0 -8 -6 -8 -16
0 -61 -49 -61 -68 0 -14 -2 -14 -9 -3 -7 11 -10 9 -16 -8 -3 -12 -9 -19 -13
-17 -4 2 -12 -2 -19 -9 -10 -11 -10 -15 0 -18 7 -3 5 -6 -5 -6 -19 -1 -68 -46
-68 -62 0 -6 -3 -8 -7 -6 -5 3 -13 -1 -20 -8 -10 -11 -10 -15 0 -18 7 -3 5 -6
-5 -6 -19 -1 -68 -46 -68 -62 0 -6 -3 -8 -7 -6 -5 3 -13 -1 -20 -8 -10 -11
-10 -15 0 -18 7 -3 5 -6 -5 -6 -22 -1 -88 -67 -88 -88 0 -11 -3 -14 -8 -7 -4
6 -13 4 -24 -7 -12 -13 -13 -19 -5 -23 7 -2 4 -5 -6 -5 -22 -1 -57 -36 -57
-58 0 -14 -2 -15 -9 -5 -11 18 -21 -7 -21 -54 0 -19 -4 -34 -10 -34 -6 0 -10
-31 -10 -74 0 -41 -4 -76 -10 -78 -12 -4 -18 -39 -19 -113 -1 -43 -4 -56 -11
-45 -7 10 -10 -14 -10 -78 0 -52 -4 -91 -9 -88 -13 8 -21 -31 -21 -106 0 -39
-4 -68 -10 -68 -6 0 -10 -31 -10 -74 0 -41 -4 -76 -10 -78 -12 -4 -18 -38 -20
-118 -1 -46 -4 -59 -10 -45 -6 13 -9 -10 -9 -68 -1 -65 -5 -92 -16 -103 -11
-11 -15 -37 -15 -92 0 -53 -3 -72 -10 -62 -7 10 -10 -12 -10 -72 0 -59 -4 -88
-12 -90 -8 -3 -15 -37 -19 -94 -3 -49 -7 -82 -9 -74 -2 8 -6 -16 -10 -55 -4
-38 -11 -81 -15 -95 -4 -14 -10 -63 -13 -110 -3 -57 -7 -78 -13 -65 -7 17 -8
16 -8 -8 -1 -15 -5 -35 -11 -45 -9 -16 -222 -1223 -217 -1228 3 -3 481 84 722
132 265 52 395 84 395 97 0 8 18 11 52 11 29 -1 68 4 87 12 18 8 61 14 95 15
43 0 55 3 41 9 -14 6 -2 9 43 9 34 1 78 8 98 16 19 8 37 14 39 15 3 0 30 0 61
0 34 0 53 4 49 10 -4 6 13 10 43 10 27 0 71 7 98 15 27 8 76 15 109 16 43 0
54 3 40 9 -14 6 0 9 47 9 45 1 71 6 82 16 10 11 36 15 88 15 45 0 68 4 59 9
-8 5 13 10 60 13 44 2 74 9 77 16 2 8 29 12 77 12 40 0 75 4 77 9 2 5 28 11
58 12 74 4 96 9 78 20 -8 5 18 9 64 9 42 0 78 4 80 9 2 5 34 11 73 14 38 2 71
10 73 16 2 7 31 11 73 11 42 0 68 4 64 10 -3 5 24 10 67 12 52 2 72 7 71 16
-2 6 2 12 8 12 14 0 95 82 92 92 -2 4 2 8 8 8 14 0 69 55 69 69 0 6 6 10 13 9
6 -2 11 3 9 9 -1 7 3 13 9 13 14 0 69 55 69 69 0 6 6 10 13 9 6 -2 11 3 9 10
-1 6 3 12 9 12 14 0 69 55 69 69 0 6 6 10 13 9 6 -2 11 3 9 10 -1 6 3 12 9 12
14 0 69 55 69 69 0 6 6 10 13 9 6 -2 11 3 9 9 -1 7 3 13 9 13 14 0 69 55 69
70 0 6 4 9 8 6 10 -6 42 29 42 45 0 5 4 8 8 5 10 -6 42 29 42 45 0 5 4 8 8 5
10 -6 42 29 42 45 0 5 4 8 8 5 10 -6 42 29 42 45 0 5 4 8 8 5 9 -6 42 29 42
44 0 6 4 9 9 8 11 -4 147 133 143 144 -1 4 3 8 9 8 14 0 95 82 91 92 -1 4 3 8
9 8 14 0 95 82 91 92 -1 4 3 8 9 8 14 0 95 82 91 92 -1 4 3 8 9 8 14 0 69 55
69 69 0 6 6 10 13 9 6 -2 11 3 9 10 -1 6 3 12 9 12 14 0 69 55 69 69 0 6 6 10
13 9 6 -2 11 3 9 10 -1 6 3 12 9 12 14 0 69 55 69 69 0 6 4 10 8 9 10 -4 92
78 92 92 0 6 4 9 8 6 10 -6 42 29 42 45 0 5 4 8 8 5 10 -6 42 29 42 45 0 5 4
8 8 5 10 -6 42 29 42 45 0 5 4 8 8 5 9 -6 42 29 42 44 0 6 3 9 8 8 10 -4 298
283 294 294 -1 4 3 8 9 8 14 0 95 82 91 92 -1 4 3 8 9 8 14 0 95 82 91 92 -1
4 3 8 9 8 14 0 95 82 91 92 -1 4 3 8 9 8 14 0 69 55 69 69 0 6 6 10 13 9 6 -2
11 3 9 10 -1 6 3 12 9 12 14 0 69 55 69 69 0 6 4 10 8 9 10 -4 92 77 92 91 0
6 4 10 8 9 10 -4 92 78 92 92 0 6 4 9 8 6 9 -6 42 29 42 44 0 6 4 9 8 8 11 -4
348 333 344 344 -1 4 3 8 9 8 14 0 95 82 91 92 -1 4 3 8 9 8 14 0 95 82 91 92
-1 4 3 8 9 8 14 0 95 82 91 92 -1 4 3 8 9 8 14 0 69 55 69 69 0 6 4 10 8 9 10
-4 92 77 92 91 0 6 4 10 8 9 10 -4 92 77 92 91 0 6 4 10 8 9 10 -4 92 78 92
92 0 6 4 9 8 6 9 -6 42 29 42 44 0 6 4 9 8 8 11 -4 348 334 344 344 -1 5 3 8
9 8 14 0 95 82 91 92 -1 4 3 8 9 8 14 0 95 82 91 92 -1 4 3 8 9 8 14 0 95 82
91 92 -1 4 5 8 13 8 8 0 15 5 15 10 0 6 7 10 15 10 8 0 15 7 15 15 0 8 5 15
10 15 6 0 10 7 10 15 0 8 4 14 8 13 10 -4 92 77 92 91 0 6 4 10 8 9 10 -4 92
77 92 91 0 6 4 10 8 9 10 -4 92 78 92 92 0 6 5 8 10 5 6 -3 13 1 16 9 3 9 12
16 20 16 8 0 13 3 12 8 -3 9 305 317 315 314 4 -1 7 2 7 8 0 14 37 50 44 42 3
-3 6 0 6 7 0 6 17 28 38 48 20 20 36 40 34 45 -1 4 3 8 9 8 14 0 95 82 91 92
-1 4 3 8 9 8 7 0 26 16 45 35 18 19 37 35 43 35 6 0 11 5 11 11 0 14 25 39 39
39 6 0 11 5 11 11 0 14 25 39 39 39 6 0 11 5 11 11 0 6 16 25 35 43 19 19 35
38 35 45 0 6 4 10 8 8 10 -3 92 78 92 92 0 6 4 10 8 8 5 -1 25 15 45 36 20 20
42 37 48 37 7 0 10 3 6 6 -7 7 29 44 44 44 5 0 8 4 5 8 -6 9 29 42 44 42 6 0
10 4 10 9 0 14 207 220 214 214 3 -4 6 -1 6 5 0 17 32 52 42 46 4 -3 8 0 8 5
0 15 37 51 44 44 3 -4 6 -1 6 5 0 17 32 52 42 46 4 -3 8 1 8 9 0 8 7 18 16 21
8 3 12 10 9 16 -3 5 -1 10 5 10 14 0 96 82 93 92 -2 4 2 8 8 8 7 0 26 16 45
35 18 19 37 35 43 35 6 0 11 5 11 11 0 14 25 39 39 39 6 0 11 5 11 11 0 14 25
39 39 39 6 0 11 5 11 11 0 14 25 39 39 39 6 0 11 7 11 15 0 8 5 15 10 15 6 0
10 7 10 15 0 8 4 14 8 12 10 -3 92 79 92 93 0 6 5 8 10 5 6 -3 13 1 16 9 3 9
13 16 21 16 8 0 12 4 9 8 -6 10 29 42 46 42 6 0 9 3 6 6 -8 7 28 44 43 44 5 0
8 4 5 8 -6 10 29 42 46 42 6 0 9 3 6 6 -8 7 28 44 42 44 5 0 9 3 8 8 -3 9 105
117 115 114 4 -1 7 3 7 8 0 14 37 50 44 43 3 -4 6 -1 6 5 0 17 32 52 42 46 4
-3 8 0 8 5 0 15 37 51 44 44 3 -4 6 -1 6 5 0 17 32 52 42 46 4 -3 8 0 8 5 0
15 37 51 44 44 3 -4 6 -1 6 6 0 6 17 28 38 48 20 20 36 40 35 45 -2 4 4 8 12
8 8 0 15 5 15 10 0 6 7 10 15 10 8 0 15 5 15 11 0 14 25 39 39 39 6 0 11 5 11
11 0 14 25 39 39 39 6 0 11 5 11 11 0 14 25 39 39 39 6 0 11 5 11 11 0 14 25
39 39 39 6 0 11 5 11 11 0 14 25 39 39 39 6 0 11 5 11 10 0 14 58 70 72 70 6
0 9 3 5 6 -7 7 29 44 44 44 5 0 8 4 5 8 -6 10 29 42 46 42 6 0 9 3 5 6 -7 7
29 44 44 44 5 0 8 4 5 8 -6 10 29 42 46 42 6 0 9 3 5 6 -7 7 29 44 44 44 5 0
8 4 5 8 -5 8 28 42 40 42 7 0 34 27 34 34 0 12 34 45 42 40 4 -3 8 0 8 5 0 15
37 51 44 43 3 -3 6 0 6 6 0 17 32 52 42 46 4 -3 8 0 8 5 0 15 37 51 44 43 3
-3 6 0 6 6 0 17 32 52 42 46 4 -3 8 0 8 6 0 14 105 120 119 120 6 0 11 5 11
11 0 6 16 25 35 43 19 19 35 38 35 45 0 6 6 10 13 8 6 -1 11 4 10 11 -2 6 4
12 12 12 8 0 15 5 15 11 0 6 6 17 13 24 29 33 37 45 37 55 0 5 5 10 11 10 12
0 39 25 39 36 0 4 11 17 25 30 14 13 25 30 25 39 0 8 7 15 15 15 8 0 15 7 15
15 0 8 5 15 10 15 6 0 10 5 10 11 0 6 6 17 13 24 29 33 37 45 37 55 0 5 7 10
15 10 10 0 15 10 15 28 0 21 2 24 10 12 8 -12 10 -11 10 8 0 12 7 25 15 28 8
4 15 17 15 31 0 13 4 21 10 18 6 -3 10 1 10 9 0 9 5 16 11 16 5 0 8 4 4 9 -3
5 -1 12 5 16 5 3 10 16 10 28 0 18 2 19 10 7 8 -12 10 -9 10 13 0 15 5 27 11
27 5 0 8 4 4 9 -3 5 -1 12 5 16 5 3 10 17 10 31 0 14 4 22 10 19 8 -5 12 21
10 60 -1 3 6 13 15 21 10 10 15 35 16 72 0 41 3 51 9 37 5 -12 9 35 9 125 0
90 -4 137 -9 125 -6 -15 -9 -8 -9 28 -1 26 -8 64 -16 84 -8 19 -15 44 -15 54
0 11 -4 19 -10 19 -5 0 -10 11 -10 24 0 14 -5 28 -10 31 -6 4 -8 11 -5 16 4 5
1 9 -4 9 -6 0 -11 12 -11 28 0 21 -2 24 -10 12 -8 -12 -10 -9 -10 12 0 15 -7
33 -15 42 -8 8 -15 19 -15 25 0 6 -4 11 -10 11 -5 0 -10 9 -10 20 0 11 -7 23
-15 26 -8 4 -15 17 -15 31 0 13 -4 21 -10 18 -5 -3 -10 1 -10 9 0 9 -4 16 -10
16 -5 0 -12 11 -16 25 -3 14 -10 25 -15 25 -5 0 -9 7 -9 15 0 8 -7 15 -15 15
-9 0 -15 9 -15 23 0 18 -2 19 -10 7 -8 -13 -10 -12 -11 5 -1 11 -1 23 0 28 0
4 -6 7 -14 7 -8 0 -15 5 -15 11 0 7 -11 22 -25 35 -14 13 -25 28 -25 35 0 6
-16 26 -35 45 -19 18 -35 37 -35 43 0 6 -7 11 -15 11 -8 0 -15 7 -15 16 0 8
-4 12 -10 9 -5 -3 -10 1 -10 9 0 9 -8 16 -17 17 -10 0 -13 3 -6 6 10 3 10 7 0
18 -7 7 -15 11 -19 8 -5 -2 -8 0 -8 6 0 6 -12 23 -27 38 -16 15 -27 31 -25 35
1 4 -5 8 -13 8 -8 0 -15 7 -15 15 0 8 -5 15 -11 15 -6 0 -17 6 -25 14 -8 8
-14 19 -14 25 0 6 -5 11 -11 11 -14 0 -39 25 -39 39 0 6 -5 11 -11 11 -14 0
-39 25 -39 39 0 6 -5 11 -11 11 -14 0 -39 25 -39 39 0 6 -5 11 -11 11 -14 0
-39 25 -39 39 0 6 -5 11 -11 11 -14 0 -39 25 -39 39 0 6 -5 11 -11 11 -14 0
-39 25 -39 39 0 6 -5 11 -11 11 -6 0 -17 6 -24 13 -33 29 -45 37 -55 37 -5 0
-10 7 -10 15 0 8 -7 15 -16 15 -8 0 -12 5 -9 10 3 6 -1 10 -9 10 -9 0 -16 7
-16 15 0 8 -5 15 -11 15 -6 0 -25 16 -43 35 -19 19 -39 35 -45 35 -7 0 -22 11
-35 25 -13 14 -28 25 -35 25 -6 0 -11 7 -11 15 0 8 -7 15 -15 15 -8 0 -15 5
-15 10 0 6 -9 10 -20 10 -11 0 -20 7 -20 15 0 8 -7 15 -15 15 -8 0 -15 5 -15
10 0 6 -7 10 -15 10 -8 0 -14 6 -12 12 1 7 -8 14 -20 16 -13 2 -23 8 -23 13 0
5 -7 9 -15 9 -8 0 -15 7 -15 15 0 10 -10 15 -27 15 -22 0 -25 2 -13 10 12 8
11 10 -6 10 -12 0 -24 7 -28 15 -3 8 -15 15 -26 15 -11 0 -20 4 -20 9 0 5 -10
11 -23 15 -12 3 -32 14 -44 26 -12 11 -29 20 -38 20 -9 0 -23 7 -31 15 -9 8
-27 15 -42 15 -21 0 -24 2 -12 10 11 7 6 10 -20 10 -19 0 -44 7 -54 15 -11 8
-30 15 -43 15 -13 0 -23 5 -23 10 0 6 -15 10 -32 10 -18 0 -55 7 -82 15 -56
17 -231 20 -258 4z m-9503 -12199 c3 -5 1 -10 -4 -10 -6 0 -11 5 -11 10 0 6 2
10 4 10 3 0 8 -4 11 -10z m25 -30 c0 -5 -2 -10 -4 -10 -3 0 -8 5 -11 10 -3 6
-1 10 4 10 6 0 11 -4 11 -10z m37 -35 c8 -9 13 -18 11 -21 -3 -2 -13 5 -23 16
-21 23 -11 27 12 5z m63 -68 c0 -5 14 -22 30 -39 17 -17 29 -32 26 -35 -5 -5
-89 83 -95 99 -2 5 6 4 18 -4 12 -7 21 -17 21 -21z m80 -97 c0 -5 -2 -10 -4
-10 -3 0 -8 5 -11 10 -3 6 -1 10 4 10 6 0 11 -4 11 -10z m25 -20 c3 -5 1 -10
-4 -10 -6 0 -11 5 -11 10 0 6 2 10 4 10 3 0 8 -4 11 -10z m25 -30 c0 -5 -2
-10 -4 -10 -3 0 -8 5 -11 10 -3 6 -1 10 4 10 6 0 11 -4 11 -10z"/>
</g>
</svg>
