<?xml version="1.0" encoding="utf-8"?>
<!-- Generator: Adobe Illustrator 16.0.0, SVG Export Plug-In . SVG Version: 6.00 Build 0)  -->
<!DOCTYPE svg PUBLIC "-//W3C//DTD SVG 1.1//EN" "http://www.w3.org/Graphics/SVG/1.1/DTD/svg11.dtd">
<svg version="1.1" id="레이어_1" xmlns="http://www.w3.org/2000/svg" xmlns:xlink="http://www.w3.org/1999/xlink" x="0px"
	 y="0px" width="24px" height="24px" viewBox="0 0 24 24" enable-background="new 0 0 24 24" xml:space="preserve">
<path fill-rule="evenodd" clip-rule="evenodd" fill="#FFFFFF" d="M10.711,2c0.859,0,1.719,0,2.578,0
	c0.294,0.101,0.431,0.322,0.498,0.615c0.151,0.652,0.319,1.3,0.474,1.951c0.028,0.12,0.078,0.187,0.196,0.232
	c0.321,0.123,0.639,0.257,0.952,0.398c0.106,0.048,0.186,0.046,0.287-0.015c0.51-0.313,1.024-0.618,1.538-0.924
	c0.372-0.222,0.601-0.194,0.905,0.109c0.493,0.492,0.985,0.984,1.478,1.477c0.313,0.314,0.343,0.542,0.116,0.921
	c-0.307,0.514-0.619,1.023-0.918,1.542c-0.04,0.069-0.043,0.186-0.014,0.262c0.124,0.328,0.273,0.646,0.398,0.973
	c0.046,0.118,0.113,0.168,0.232,0.197c0.657,0.156,1.312,0.328,1.97,0.48c0.288,0.066,0.496,0.207,0.598,0.491
	c0,0.859,0,1.719,0,2.578c-0.102,0.283-0.31,0.425-0.598,0.491c-0.658,0.152-1.313,0.324-1.97,0.48
	c-0.119,0.028-0.187,0.078-0.231,0.197c-0.12,0.314-0.252,0.626-0.392,0.934c-0.049,0.107-0.042,0.185,0.019,0.284
	c0.31,0.505,0.612,1.013,0.915,1.521c0.214,0.358,0.185,0.592-0.112,0.89c-0.496,0.499-0.992,0.996-1.49,1.492
	c-0.299,0.298-0.544,0.326-0.909,0.107c-0.497-0.296-0.994-0.592-1.487-0.895c-0.101-0.062-0.177-0.066-0.284-0.018
	c-0.33,0.151-0.665,0.294-1.004,0.426c-0.117,0.046-0.168,0.112-0.196,0.232c-0.156,0.657-0.328,1.312-0.479,1.97
	c-0.066,0.288-0.208,0.496-0.491,0.598c-0.859,0-1.719,0-2.578,0c-0.283-0.102-0.425-0.309-0.491-0.598
	c-0.152-0.657-0.325-1.311-0.479-1.968c-0.031-0.133-0.094-0.193-0.215-0.24c-0.32-0.124-0.639-0.256-0.95-0.4
	c-0.114-0.053-0.196-0.045-0.302,0.02c-0.482,0.297-0.968,0.585-1.453,0.875c-0.365,0.217-0.607,0.187-0.908-0.113
	c-0.492-0.491-0.984-0.983-1.477-1.476c-0.31-0.312-0.339-0.546-0.114-0.922c0.293-0.491,0.591-0.979,0.878-1.474
	c0.036-0.063,0.04-0.172,0.014-0.242c-0.131-0.339-0.283-0.669-0.416-1.007c-0.042-0.108-0.098-0.164-0.214-0.192
	c-0.663-0.157-1.323-0.329-1.987-0.482C2.309,13.714,2.101,13.572,2,13.289c0-0.859,0-1.719,0-2.578
	c0.101-0.284,0.309-0.425,0.597-0.491c0.658-0.152,1.312-0.326,1.969-0.48C4.696,9.708,4.76,9.646,4.804,9.523
	c0.1-0.274,0.21-0.545,0.331-0.811c0.049-0.107,0.048-0.185-0.014-0.285C4.786,7.878,4.457,7.325,4.127,6.773
	C3.901,6.396,3.929,6.155,4.233,5.849C4.726,5.356,5.218,4.864,5.71,4.372c0.312-0.31,0.541-0.336,0.922-0.108
	c0.53,0.317,1.063,0.631,1.588,0.955c0.109,0.068,0.191,0.064,0.304,0.013c0.331-0.15,0.665-0.294,1.003-0.427
	c0.12-0.047,0.184-0.107,0.215-0.24c0.153-0.658,0.326-1.311,0.479-1.969C10.286,2.309,10.428,2.101,10.711,2z M11.994,16.101
	c2.253,0.005,4.102-1.84,4.106-4.096c0.005-2.253-1.84-4.102-4.096-4.106c-2.253-0.004-4.102,1.839-4.105,4.095
	C7.895,14.247,9.738,16.096,11.994,16.101z"/>
</svg>
