<?xml version="1.0" encoding="utf-8"?>
<!-- Generator: Adobe Illustrator 16.0.0, SVG Export Plug-In . SVG Version: 6.00 Build 0)  -->
<!DOCTYPE svg PUBLIC "-//W3C//DTD SVG 1.1//EN" "http://www.w3.org/Graphics/SVG/1.1/DTD/svg11.dtd">
<svg version="1.1" id="레이어_1" xmlns="http://www.w3.org/2000/svg" xmlns:xlink="http://www.w3.org/1999/xlink" x="0px"
	 y="0px" width="20px" height="20px" viewBox="0 0 20 20" enable-background="new 0 0 20 20" xml:space="preserve">
<g opacity="0.5">
	<path fill="#FFFFFF" d="M16.027,7.978v-4.44c0-1.041-0.836-1.885-1.867-1.885H5.079l1.869,1.859h7.204
		c0.004,0.005,0.008,0.012,0.008,0.025v7.148l1.867,1.859v-1.572L20,14.99V4.09L16.027,7.978z"/>
	<path fill="#FFFFFF" d="M0,1.814l0.867,0.862C0.734,2.935,0.66,3.227,0.66,3.537v11.727c0,1.041,0.837,1.885,1.869,1.885h11.63
		c0.356,0,0.69-0.103,0.975-0.276l2.642,2.628l1.322-1.314L1.322,0.5L0,1.814z M2.538,15.289c-0.004-0.004-0.008-0.012-0.008-0.023
		V4.332l11.014,10.957H2.538z"/>
</g>
</svg>
