<?xml version="1.0" encoding="utf-8"?>
<!-- Generator: Adobe Illustrator 16.0.0, SVG Export Plug-In . SVG Version: 6.00 Build 0)  -->
<!DOCTYPE svg PUBLIC "-//W3C//DTD SVG 1.1//EN" "http://www.w3.org/Graphics/SVG/1.1/DTD/svg11.dtd">
<svg version="1.1" id="레이어_1" xmlns="http://www.w3.org/2000/svg" xmlns:xlink="http://www.w3.org/1999/xlink" x="0px"
	 y="0px" width="24px" height="24px" viewBox="0 0 24 24" enable-background="new 0 0 24 24" xml:space="preserve">
<g>
	<g opacity="0.5">
		<polygon fill="#FFFFFF" points="21.105,21.943 1.912,2.882 3.807,1 23,20.062 		"/>
	</g>
	<g opacity="0.5">
		<g>
			<path fill="#FFFFFF" d="M20.303,5.604v10.436l1.913,1.9c0.133-0.205,0.232-0.435,0.232-0.697V4.775
				c0-0.719-0.587-1.301-1.311-1.301H7.65l2.145,2.129H20.303z"/>
		</g>
		<g>
			<path fill="#FFFFFF" d="M10.83,16.414h-0.688L9.58,16.813L6.72,18.85v-0.306v-2.13H4.576H3.146V5.699L1.345,3.912
				C1.137,4.143,1,4.441,1,4.775v12.467c0,0.72,0.588,1.302,1.311,1.302h2.266L4.574,23l6.256-4.456h5.248l-2.145-2.13H10.83z"/>
		</g>
	</g>
</g>
</svg>
