<?xml version="1.0" encoding="utf-8"?>
<!-- Generator: Adobe Illustrator 16.0.0, SVG Export Plug-In . SVG Version: 6.00 Build 0)  -->
<!DOCTYPE svg PUBLIC "-//W3C//DTD SVG 1.1//EN" "http://www.w3.org/Graphics/SVG/1.1/DTD/svg11.dtd">
<svg version="1.1" id="레이어_1" xmlns="http://www.w3.org/2000/svg" xmlns:xlink="http://www.w3.org/1999/xlink" x="0px"
	 y="0px" width="480px" height="361px" viewBox="400 179.5 480 361" enable-background="new 400 179.5 480 361"
	 xml:space="preserve">
<g>
	<path opacity="0.1" fill="#FFFFFF" enable-background="new    " d="M640,331.875c-15.531,0-28.125,12.594-28.125,28.125
		s12.594,28.125,28.125,28.125s28.125-12.594,28.125-28.125S655.531,331.875,640,331.875z M640,383.438
		c-7.32,0-13.861-3.377-18.162-8.646c0.607-1.377,1.836-2.336,4.376-2.922c5.259-1.216,10.452-2.297,7.952-6.899
		c-7.394-13.646-2.107-21.376,5.834-21.376c7.785,0,13.205,7.445,5.834,21.372c-2.425,4.574,2.578,5.661,7.95,6.903
		c2.538,0.586,3.775,1.53,4.388,2.907C653.868,380.061,647.324,383.438,640,383.438z"/>
</g>
</svg>
