<?xml version="1.0" encoding="utf-8"?>
<!-- Generator: Adobe Illustrator 16.0.0, SVG Export Plug-In . SVG Version: 6.00 Build 0)  -->
<!DOCTYPE svg PUBLIC "-//W3C//DTD SVG 1.1//EN" "http://www.w3.org/Graphics/SVG/1.1/DTD/svg11.dtd">
<svg version="1.1" id="레이어_1" xmlns="http://www.w3.org/2000/svg" xmlns:xlink="http://www.w3.org/1999/xlink" x="0px"
	 y="0px" width="24px" height="24px" viewBox="0 0 24 24" enable-background="new 0 0 24 24" xml:space="preserve">
<g>
	<path fill="#FFFFFF" d="M8.797,22c-0.37-0.118-0.648-0.331-0.724-0.734c-0.022-0.119-0.022-0.244-0.022-0.369
		c0-5.91,0.004-11.819-0.008-17.729C8.042,2.584,8.234,2.188,8.797,2c0.117,0,0.234,0,0.352,0c0.053,0.022,0.105,0.045,0.158,0.066
		c0.363,0.155,0.56,0.428,0.588,0.823C9.898,2.94,9.896,2.993,9.896,3.045c0,5.965,0,11.93,0,17.895
		c0,0.596-0.176,0.844-0.734,1.047c-0.006,0.002-0.01,0.01-0.014,0.015C9.031,22,8.914,22,8.797,22z"/>
	<path fill="#FFFFFF" d="M2,11.219c0.112-0.178,0.195-0.389,0.344-0.527c0.269-0.25,0.605-0.289,0.945-0.141
		c0.338,0.146,0.538,0.412,0.553,0.782c0.016,0.429,0.016,0.858,0.002,1.287c-0.015,0.489-0.331,0.841-0.784,0.899
		c-0.481,0.062-0.873-0.195-1.024-0.674C2.027,12.822,2.012,12.803,2,12.781C2,12.26,2,11.739,2,11.219z"/>
	<path fill="#FFFFFF" d="M22,12.781c-0.113,0.352-0.311,0.621-0.693,0.717c-0.572,0.143-1.113-0.229-1.146-0.82
		c-0.022-0.434-0.019-0.87-0.007-1.306c0.011-0.459,0.342-0.827,0.777-0.892c0.441-0.064,0.857,0.188,1.018,0.614
		c0.016,0.042,0.033,0.083,0.051,0.124C22,11.739,22,12.26,22,12.781z"/>
	<path fill="#FFFFFF" d="M11.068,11.995c0-1.868-0.001-3.736,0-5.604c0.001-0.557,0.364-0.971,0.865-0.996
		c0.535-0.026,0.954,0.346,0.994,0.884c0.003,0.039,0.003,0.078,0.003,0.117c0,3.729,0,7.459,0,11.188
		c0,0.502-0.224,0.846-0.626,0.977c-0.639,0.207-1.225-0.227-1.233-0.922c-0.008-0.58-0.002-1.158-0.002-1.738
		C11.068,14.6,11.068,13.297,11.068,11.995z"/>
	<path fill="#FFFFFF" d="M17.121,11.976c0-1.868-0.002-3.735,0-5.604c0.001-0.589,0.416-0.999,0.979-0.977
		c0.418,0.017,0.785,0.337,0.854,0.75c0.015,0.09,0.021,0.182,0.021,0.271c0.002,3.716,0.002,7.432,0.002,11.146
		c0,0.521-0.219,0.862-0.625,0.996c-0.625,0.203-1.211-0.215-1.229-0.885c-0.011-0.357-0.002-0.716-0.002-1.074
		C17.121,15.061,17.121,13.518,17.121,11.976z"/>
	<path fill="#FFFFFF" d="M14.104,11.979c0-0.761-0.004-1.521,0.002-2.283c0.004-0.483,0.355-0.863,0.821-0.908
		c0.476-0.046,0.894,0.251,1,0.714c0.017,0.075,0.021,0.154,0.021,0.231c0.002,1.51,0.004,3.019,0,4.529
		c-0.003,0.627-0.457,1.022-1.067,0.945c-0.451-0.059-0.77-0.418-0.773-0.906C14.098,13.527,14.104,12.753,14.104,11.979z"/>
	<path fill="#FFFFFF" d="M6.879,11.994c0,1.309,0.001,2.615-0.002,3.924c0,0.544-0.288,0.9-0.783,0.986
		c-0.504,0.087-0.975-0.25-1.051-0.758c-0.014-0.096-0.021-0.193-0.021-0.291c0-2.576,0-5.153,0-7.73
		c0-0.536,0.258-0.902,0.709-1.012c0.6-0.146,1.144,0.293,1.146,0.938c0.005,1.073,0.002,2.146,0.002,3.221
		C6.879,11.513,6.879,11.753,6.879,11.994z"/>
</g>
</svg>
