<?xml version="1.0" encoding="utf-8"?>
<!-- Generator: Adobe Illustrator 16.0.0, SVG Export Plug-In . SVG Version: 6.00 Build 0)  -->
<!DOCTYPE svg PUBLIC "-//W3C//DTD SVG 1.1//EN" "http://www.w3.org/Graphics/SVG/1.1/DTD/svg11.dtd">
<svg version="1.1" id="레이어_1" xmlns="http://www.w3.org/2000/svg" xmlns:xlink="http://www.w3.org/1999/xlink" x="0px"
	 y="0px" width="24px" height="24px" viewBox="0 0 24 24" enable-background="new 0 0 24 24" xml:space="preserve">
<g>
	<path fill-rule="evenodd" clip-rule="evenodd" fill="#FFFFFF" d="M11.844,2c0.104,0,0.208,0,0.313,0
		c0.363,0.146,0.5,0.422,0.471,0.803c-0.014,0.185-0.002,0.372-0.002,0.569c0.104,0,0.183,0,0.26,0c2.363,0,4.727,0,7.09,0
		c0.552,0,0.775,0.22,0.775,0.764c0,3.372,0,6.745,0,10.117c0,0.069,0,0.139,0,0.208c-5.846,0-11.667,0-17.5,0
		c0-0.094,0-0.171,0-0.248c0-3.346,0-6.692,0-10.039c0-0.591,0.21-0.803,0.795-0.803c2.363,0,4.727,0,7.09,0c0.075,0,0.15,0,0.24,0
		c0-0.207,0.012-0.389-0.002-0.569C11.344,2.422,11.479,2.146,11.844,2z"/>
	<path fill-rule="evenodd" clip-rule="evenodd" fill="#FFFFFF" d="M2,16.023c0.138-0.374,0.408-0.51,0.802-0.51
		c6.131,0.006,12.261,0.006,18.392,0c0.379,0,0.655,0.111,0.807,0.471c0,0.104,0,0.208,0,0.313c-0.141,0.354-0.403,0.478-0.78,0.477
		c-2.564-0.01-5.13-0.005-7.694-0.005c-0.068,0-0.137,0-0.246,0c0.076,0.085,0.121,0.138,0.168,0.188
		c1.128,1.191,2.255,2.383,3.383,3.574c0.063,0.066,0.126,0.132,0.181,0.205c0.176,0.236,0.157,0.553-0.042,0.771
		c-0.272,0.297-0.645,0.286-0.953-0.037c-1.077-1.132-2.151-2.266-3.228-3.399c-0.044-0.046-0.092-0.091-0.163-0.162
		c0,1.129-0.01,2.209,0.005,3.289c0.005,0.381-0.112,0.655-0.474,0.804c-0.104,0-0.209,0-0.313,0
		c-0.363-0.147-0.479-0.422-0.475-0.803c0.016-1.021,0.006-2.043,0.006-3.064c0-0.062,0-0.124,0-0.187
		c-0.019-0.012-0.037-0.023-0.055-0.035c-0.035,0.052-0.065,0.11-0.108,0.155c-0.733,0.775-1.468,1.55-2.202,2.323
		c-0.363,0.382-0.723,0.767-1.092,1.143c-0.193,0.197-0.481,0.229-0.721,0.103c-0.232-0.123-0.375-0.375-0.307-0.636
		c0.041-0.155,0.137-0.311,0.248-0.429c1.135-1.211,2.277-2.413,3.417-3.618c0.047-0.05,0.09-0.103,0.161-0.184
		c-0.109,0-0.179,0-0.248,0c-2.563,0-5.127-0.005-7.689,0.004C2.402,16.774,2.139,16.653,2,16.297C2,16.205,2,16.114,2,16.023z"/>
</g>
</svg>
