<?xml version="1.0" encoding="utf-8"?>
<!-- Generator: Adobe Illustrator 16.0.0, SVG Export Plug-In . SVG Version: 6.00 Build 0)  -->
<!DOCTYPE svg PUBLIC "-//W3C//DTD SVG 1.1//EN" "http://www.w3.org/Graphics/SVG/1.1/DTD/svg11.dtd">
<svg version="1.1" id="레이어_1" xmlns="http://www.w3.org/2000/svg" xmlns:xlink="http://www.w3.org/1999/xlink" x="0px"
	 y="0px" width="1280px" height="720px" viewBox="0 0 1280 720" enable-background="new 0 0 1280 720" xml:space="preserve">
<path opacity="0.1" fill="#FFFFFF" d="M640,285c-41.416,0-75,33.584-75,75s33.584,75,75,75s75-33.584,75-75S681.416,285,640,285z
	 M640,422.5c-19.521,0-36.963-9.004-48.433-23.057c1.621-3.672,4.897-6.23,11.67-7.793c14.023-3.242,27.871-6.123,21.206-18.398
	c-19.716-36.387-5.62-57.002,15.557-57.002c20.762,0,35.215,19.854,15.557,56.992c-6.465,12.197,6.875,15.098,21.201,18.408
	c6.768,1.563,10.068,4.082,11.699,7.754C676.982,413.496,659.531,422.5,640,422.5z"/>
</svg>
