<?xml version="1.0" encoding="utf-8"?>
<!-- Generator: Adobe Illustrator 16.0.0, SVG Export Plug-In . SVG Version: 6.00 Build 0)  -->
<!DOCTYPE svg PUBLIC "-//W3C//DTD SVG 1.1//EN" "http://www.w3.org/Graphics/SVG/1.1/DTD/svg11.dtd">
<svg version="1.1" id="레이어_1" xmlns="http://www.w3.org/2000/svg" xmlns:xlink="http://www.w3.org/1999/xlink" x="0px"
	 y="0px" width="24px" height="24px" viewBox="0 0 24 24" enable-background="new 0 0 24 24" xml:space="preserve">
<g>
	<path opacity="0.5" fill-rule="evenodd" clip-rule="evenodd" fill="#FFFFFF" d="M7.757,22c-0.034-0.018-0.067-0.038-0.103-0.053
		c-0.369-0.154-0.572-0.494-0.509-0.85c0.064-0.354,0.396-0.626,0.802-0.63c0.988-0.007,1.977-0.002,2.964-0.003
		c0.081,0,0.161,0,0.257,0c0-0.536,0-1.053,0-1.59c-1.053-0.115-2.035-0.435-2.951-0.973c-0.057,0.051-0.111,0.099-0.164,0.148
		c-0.98,0.93-1.959,1.859-2.939,2.789c-0.333,0.316-0.49,0.315-0.826-0.003c-0.281-0.267-0.564-0.532-0.843-0.801
		c-0.26-0.249-0.261-0.438,0-0.687c0.61-0.581,1.222-1.159,1.833-1.74c4.525-4.295,9.051-8.589,13.578-12.884
		c0.059-0.055,0.114-0.112,0.18-0.16c0.172-0.129,0.349-0.146,0.504-0.006c0.383,0.344,0.756,0.7,1.118,1.063
		c0.132,0.132,0.118,0.299,0.003,0.447c-0.052,0.068-0.117,0.128-0.179,0.188c-1.421,1.35-2.84,2.7-4.266,4.044
		c-0.123,0.116-0.167,0.232-0.169,0.394c-0.007,0.631,0.021,1.266-0.056,1.891c-0.143,1.167-0.825,2.039-1.841,2.667
		c-1.032,0.639-2.161,0.736-3.334,0.418c-0.143-0.039-0.234-0.027-0.34,0.078c-0.342,0.338-0.695,0.665-1.072,1.022
		c0.224,0.096,0.422,0.191,0.628,0.267c2.349,0.84,4.964,0.112,6.484-1.78c0.792-0.986,1.155-2.096,1.159-3.324
		c0.003-0.501-0.005-1.003,0.005-1.504c0.009-0.37,0.322-0.687,0.701-0.73c0.387-0.045,0.754,0.181,0.871,0.539
		c0.019,0.055,0.035,0.114,0.033,0.171c-0.024,0.877-0.005,1.758-0.088,2.631c-0.112,1.159-0.62,2.191-1.363,3.111
		c-0.795,0.983-1.779,1.747-2.991,2.228c-0.565,0.225-1.151,0.375-1.759,0.457c-0.081,0.011-0.161,0.025-0.256,0.04
		c0,0.521,0,1.039,0,1.589c0.078,0,0.156,0,0.236,0c0.98,0,1.961-0.004,2.941,0.002c0.516,0.002,0.875,0.351,0.85,0.807
		c-0.017,0.299-0.186,0.51-0.457,0.648c-0.053,0.027-0.106,0.053-0.159,0.078C13.411,22,10.584,22,7.757,22z"/>
	<path opacity="0.5" fill-rule="evenodd" clip-rule="evenodd" fill="#FFFFFF" d="M12.41,2c0.33,0.079,0.671,0.127,0.987,0.242
		c1.098,0.398,1.886,1.112,2.35,2.142c0.044,0.1,0.053,0.169-0.04,0.256c-2.555,2.419-5.106,4.84-7.658,7.262
		c-0.019,0.017-0.041,0.03-0.091,0.069c-0.006-0.093-0.012-0.16-0.012-0.227c0-1.927,0-3.854,0-5.781
		c-0.001-1.688,0.833-2.886,2.403-3.628c0.318-0.15,0.69-0.198,1.039-0.292C11.453,2.025,11.52,2.014,11.586,2
		C11.86,2,12.135,2,12.41,2z"/>
	<path opacity="0.5" fill-rule="evenodd" clip-rule="evenodd" fill="#FFFFFF" d="M5.24,14.566c-0.363-0.849-0.531-1.697-0.533-2.577
		c-0.001-0.493-0.003-0.988,0-1.482C4.71,10.04,5.055,9.695,5.511,9.695c0.458-0.001,0.802,0.343,0.81,0.809
		c0.012,0.675,0.016,1.351,0.042,2.026c0.009,0.231,0.083,0.461,0.115,0.691c0.01,0.063,0.009,0.154-0.03,0.191
		C6.057,13.795,5.659,14.168,5.24,14.566z"/>
</g>
</svg>
