<?xml version="1.0" encoding="utf-8"?>
<!-- Generator: Adobe Illustrator 16.0.0, SVG Export Plug-In . SVG Version: 6.00 Build 0)  -->
<!DOCTYPE svg PUBLIC "-//W3C//DTD SVG 1.1//EN" "http://www.w3.org/Graphics/SVG/1.1/DTD/svg11.dtd">
<svg version="1.1" id="레이어_1" xmlns="http://www.w3.org/2000/svg" xmlns:xlink="http://www.w3.org/1999/xlink" x="0px"
	 y="0px" width="24px" height="24px" viewBox="0 0 24 24" enable-background="new 0 0 24 24" xml:space="preserve">
<g>
	<path fill-rule="evenodd" clip-rule="evenodd" fill="#FFFFFF" d="M12.418,2c0.13,0.023,0.26,0.052,0.393,0.072
		c1.817,0.305,3.305,1.854,3.329,3.558c0.029,2.227,0.03,4.453-0.008,6.679c-0.02,1.124-0.626,2.031-1.574,2.714
		c-2.306,1.659-5.638,0.711-6.529-1.856c-0.137-0.401-0.186-0.845-0.189-1.268C7.82,9.913,7.83,7.929,7.833,5.942
		c0.002-1.68,0.864-2.869,2.468-3.607c0.328-0.152,0.711-0.198,1.067-0.292C11.438,2.024,11.506,2.015,11.571,2
		C11.854,2,12.137,2,12.418,2z"/>
	<path fill-rule="evenodd" clip-rule="evenodd" fill="#FFFFFF" d="M7.638,22c-0.033-0.019-0.07-0.038-0.106-0.053
		c-0.377-0.155-0.59-0.494-0.521-0.849c0.065-0.354,0.407-0.627,0.823-0.629c1.013-0.009,2.03-0.006,3.044-0.007
		c0.082,0,0.166,0,0.266,0c0-0.533,0-1.048,0-1.581c-0.293-0.05-0.591-0.09-0.883-0.158c-2.532-0.572-4.249-2.027-5.262-4.211
		C4.626,13.71,4.496,12.851,4.5,11.976c0.001-0.482-0.001-0.965,0.001-1.444c0.002-0.485,0.349-0.835,0.827-0.836
		c0.484-0.003,0.827,0.348,0.832,0.846c0.009,0.619-0.005,1.239,0.032,1.854c0.073,1.363,0.677,2.516,1.741,3.449
		c1.81,1.586,3.94,1.975,6.229,1.141c2.011-0.731,3.262-2.154,3.578-4.164c0.121-0.767,0.064-1.559,0.088-2.339
		c0.016-0.472,0.405-0.817,0.898-0.786c0.382,0.023,0.749,0.33,0.752,0.678c0.01,0.948,0.074,1.902-0.096,2.843
		c-0.195,1.081-0.659,2.056-1.38,2.921c-0.818,0.982-1.821,1.752-3.069,2.234c-0.583,0.229-1.193,0.382-1.826,0.464
		c-0.083,0.009-0.165,0.024-0.263,0.04c0,0.522,0,1.039,0,1.587c0.082,0,0.163,0,0.246,0c1.007,0.001,2.015-0.002,3.024,0.005
		c0.526,0.003,0.898,0.348,0.87,0.806c-0.017,0.3-0.188,0.509-0.471,0.648c-0.053,0.025-0.107,0.053-0.162,0.078
		C13.448,22,10.544,22,7.638,22z"/>
</g>
</svg>
