<?xml version="1.0" encoding="utf-8"?>
<!-- Generator: Adobe Illustrator 16.0.0, SVG Export Plug-In . SVG Version: 6.00 Build 0)  -->
<!DOCTYPE svg PUBLIC "-//W3C//DTD SVG 1.1//EN" "http://www.w3.org/Graphics/SVG/1.1/DTD/svg11.dtd">
<svg version="1.1" id="레이어_1" xmlns="http://www.w3.org/2000/svg" xmlns:xlink="http://www.w3.org/1999/xlink" x="0px"
	 y="0px" width="24px" height="24px" viewBox="0 0 24 24" enable-background="new 0 0 24 24" xml:space="preserve">
<g>
	<path fill-rule="evenodd" clip-rule="evenodd" fill="#FFFFFF" d="M2,20.359C2,14.786,2,9.213,2,3.641
		c0.01-0.036,0.025-0.071,0.031-0.108C2.104,3.071,2.33,2.7,2.688,2.403C2.967,2.172,3.296,2.07,3.641,2c5.573,0,11.146,0,16.719,0
		c0.03,0.01,0.061,0.024,0.092,0.029c0.463,0.069,0.835,0.291,1.136,0.647C21.823,2.958,21.93,3.29,22,3.641
		c0,5.573,0,11.146,0,16.719c-0.011,0.036-0.024,0.071-0.03,0.107c-0.074,0.462-0.3,0.833-0.658,1.13
		c-0.278,0.231-0.607,0.333-0.952,0.403c-5.573,0-11.146,0-16.719,0c-0.031-0.01-0.061-0.024-0.092-0.029
		c-0.462-0.068-0.835-0.29-1.135-0.646C2.177,21.043,2.07,20.71,2,20.359z M20.169,6.555c-5.45,0-10.889,0-16.334,0
		c0,4.544,0,9.077,0,13.611c5.454,0,10.891,0,16.334,0C20.169,15.622,20.169,11.095,20.169,6.555z M6.082,3.826
		C5.841,3.83,5.636,4.038,5.639,4.276c0.003,0.236,0.215,0.448,0.45,0.449C6.337,4.726,6.544,4.512,6.537,4.26
		C6.53,4.014,6.329,3.821,6.082,3.826z M7.913,3.826c-0.247-0.002-0.446,0.192-0.45,0.439c-0.005,0.25,0.206,0.465,0.452,0.46
		c0.236-0.004,0.447-0.219,0.446-0.454C8.36,4.032,8.155,3.827,7.913,3.826z M4.273,3.826c-0.247,0-0.445,0.196-0.447,0.443
		C3.824,4.512,4.022,4.717,4.264,4.725c0.242,0.007,0.464-0.215,0.46-0.457C4.72,4.026,4.516,3.826,4.273,3.826z"/>
	<path fill-rule="evenodd" clip-rule="evenodd" fill="#FFFFFF" d="M16.54,11.085c0.004,0.722-0.433,1.407-1.105,1.673
		c-0.7,0.276-1.355,0.186-1.919-0.34c-0.111-0.104-0.19-0.126-0.333-0.052c-0.651,0.338-1.309,0.666-1.97,0.986
		c-0.131,0.063-0.167,0.133-0.141,0.269c0.02,0.101,0.032,0.213,0.009,0.31c-0.051,0.207,0.02,0.306,0.213,0.396
		c0.646,0.305,1.282,0.631,1.919,0.957c0.109,0.056,0.18,0.057,0.269-0.035c0.83-0.86,2.322-0.62,2.887,0.519
		c0.528,1.065-0.207,2.42-1.386,2.573c-0.929,0.121-1.811-0.488-2.005-1.351c-0.048-0.212-0.049-0.438-0.045-0.655
		c0.002-0.117-0.005-0.185-0.123-0.243c-0.684-0.333-1.363-0.674-2.041-1.02c-0.109-0.057-0.169-0.03-0.25,0.043
		c-0.747,0.683-1.711,0.705-2.465,0.036c-0.502-0.444-0.684-1.026-0.557-1.68c0.13-0.661,0.525-1.128,1.164-1.354
		c0.692-0.245,1.32-0.114,1.854,0.4c0.088,0.085,0.152,0.1,0.266,0.041c0.672-0.345,1.346-0.681,2.023-1.012
		c0.113-0.056,0.142-0.116,0.127-0.24c-0.129-1.065,0.645-1.983,1.752-2.027C15.685,9.242,16.524,10.035,16.54,11.085z"/>
</g>
</svg>
