<?xml version="1.0" encoding="utf-8"?>
<!-- Generator: Adobe Illustrator 16.0.0, SVG Export Plug-In . SVG Version: 6.00 Build 0)  -->
<!DOCTYPE svg PUBLIC "-//W3C//DTD SVG 1.1//EN" "http://www.w3.org/Graphics/SVG/1.1/DTD/svg11.dtd">
<svg version="1.1" id="레이어_1" xmlns="http://www.w3.org/2000/svg" xmlns:xlink="http://www.w3.org/1999/xlink" x="0px"
	 y="0px" width="24px" height="24px" viewBox="0 0 24 24" enable-background="new 0 0 24 24" xml:space="preserve">
<g>
	<path fill="#66F29E" d="M20.799,5.282v11.073h-9.715h-0.707l-0.575,0.408l-2.935,2.088v-0.314l0.001-2.182h-2.2H3.201V5.282H20.799
		 M21.656,3.1H2.347C1.601,3.1,1,3.696,1,4.434v12.771c0,0.734,0.601,1.332,1.347,1.332h2.321L4.666,23.1l6.418-4.563h10.572
		c0.743,0,1.344-0.598,1.344-1.332V4.434C23,3.696,22.399,3.1,21.656,3.1L21.656,3.1z"/>
	<ellipse fill="#66F29E" cx="7.417" cy="10.828" rx="1.376" ry="1.364"/>
	<path fill="#66F29E" d="M12,12.192c-0.758,0-1.373-0.611-1.373-1.364c0-0.754,0.615-1.364,1.373-1.364
		c0.762,0,1.375,0.609,1.375,1.364C13.375,11.581,12.762,12.192,12,12.192z"/>
	<ellipse fill="#66F29E" cx="16.583" cy="10.828" rx="1.374" ry="1.364"/>
</g>
</svg>
