<?xml version="1.0" encoding="utf-8"?>
<!-- Generator: Adobe Illustrator 16.0.0, SVG Export Plug-In . SVG Version: 6.00 Build 0)  -->
<!DOCTYPE svg PUBLIC "-//W3C//DTD SVG 1.1//EN" "http://www.w3.org/Graphics/SVG/1.1/DTD/svg11.dtd">
<svg version="1.1" id="레이어_1" xmlns="http://www.w3.org/2000/svg" xmlns:xlink="http://www.w3.org/1999/xlink" x="0px"
	 y="0px" width="24px" height="24px" viewBox="0 0 24 24" enable-background="new 0 0 24 24" xml:space="preserve">
<g>
	<path fill-rule="evenodd" clip-rule="evenodd" fill="#FFFFFF" d="M5.984,22c-0.501-0.183-0.684-0.549-0.659-1.064
		c0.036-0.747-0.027-1.506,0.081-2.241c0.319-2.18,1.538-3.704,3.554-4.588c0.706-0.31,1.453-0.438,2.225-0.438
		c1.652,0.002,3.306-0.008,4.959,0.004c2.798,0.018,5.082,1.851,5.715,4.575c0.061,0.259,0.096,0.522,0.142,0.782
		c0,0.769,0,1.538,0,2.307c-0.109,0.334-0.33,0.555-0.666,0.664C16.219,22,11.102,22,5.984,22z"/>
	<path fill-rule="evenodd" clip-rule="evenodd" fill="#FFFFFF" d="M14.109,2c0.31,0.063,0.627,0.109,0.931,0.195
		c2.202,0.627,3.725,2.713,3.625,4.956c-0.109,2.378-1.758,4.314-4.051,4.759c-2.829,0.549-5.526-1.406-5.903-4.278
		c-0.365-2.754,1.627-5.295,4.388-5.598C13.149,2.027,13.199,2.012,13.25,2C13.536,2,13.821,2,14.109,2z"/>
	<path fill-rule="evenodd" clip-rule="evenodd" fill="#FFFFFF" d="M2,10.984c0.181-0.501,0.547-0.684,1.063-0.659
		C3.53,10.345,4,10.33,4.5,10.33c0-0.071,0-0.134,0-0.195c0-0.476-0.003-0.95,0-1.426C4.503,8.206,4.856,7.835,5.328,7.83
		C5.796,7.827,6.16,8.199,6.167,8.701c0.008,0.532,0.001,1.065,0.001,1.629c0.083,0,0.151-0.002,0.222,0
		c0.474,0,0.949-0.005,1.426,0.002c0.4,0.006,0.72,0.247,0.818,0.604c0.1,0.352-0.03,0.737-0.347,0.918
		c-0.149,0.085-0.34,0.134-0.514,0.14c-0.526,0.019-1.052,0.005-1.605,0.005c0,0.104,0,0.192,0,0.282c0,0.442,0.005,0.885,0,1.328
		c-0.005,0.519-0.356,0.89-0.836,0.89c-0.48,0-0.83-0.374-0.832-0.892c-0.002-0.527,0-1.053,0-1.608c-0.139,0-0.266,0-0.393,0
		c-0.357,0-0.716-0.015-1.074,0.005C2.52,12.031,2.169,11.829,2,11.334C2,11.217,2,11.102,2,10.984z"/>
</g>
</svg>
