<?xml version="1.0" encoding="utf-8"?>
<!-- Generator: Adobe Illustrator 16.0.0, SVG Export Plug-In . SVG Version: 6.00 Build 0)  -->
<!DOCTYPE svg PUBLIC "-//W3C//DTD SVG 1.1//EN" "http://www.w3.org/Graphics/SVG/1.1/DTD/svg11.dtd">
<svg version="1.1" id="레이어_1" xmlns="http://www.w3.org/2000/svg" xmlns:xlink="http://www.w3.org/1999/xlink" x="0px"
	 y="0px" width="24px" height="24px" viewBox="0 0 24 24" enable-background="new 0 0 24 24" xml:space="preserve">
<g>
	<path fill="#FFFFFF" d="M20.57,18.3V21H3.43v-2.7H20.57z M20.57,4.801c-1.285,0-2.28,1.516-1.369,2.873
		c0.461,0.685,0.349,1.095,0.04,1.575c-0.658,1.014-1.605,1.852-2.954,1.852c-2.163,0-3.305-1.876-3.542-3.463
		c-0.083-0.553-0.13-0.967,0.372-1.481c0.348-0.351,0.597-0.813,0.597-1.355C13.714,3.806,12.946,3,12,3s-1.714,0.806-1.714,1.801
		c0,0.542,0.249,1.005,0.597,1.355c0.502,0.515,0.455,0.929,0.372,1.481c-0.237,1.587-1.379,3.463-3.542,3.463
		c-1.349,0-2.296-0.838-2.954-1.853c-0.309-0.479-0.421-0.89,0.04-1.574C5.71,6.316,4.715,4.801,3.43,4.801
		c-0.948,0-1.715,0.807-1.715,1.8c0,0.716,0.398,1.346,0.98,1.628C3.403,8.569,3.43,9.413,3.43,10.181V16.5H20.57v-6.319
		c0-0.768,0.026-1.611,0.734-1.952c0.582-0.282,0.98-0.912,0.98-1.628C22.285,5.607,21.519,4.801,20.57,4.801z"/>
</g>
</svg>
