<?xml version="1.0" encoding="utf-8"?>
<!-- Generator: Adobe Illustrator 16.0.0, SVG Export Plug-In . SVG Version: 6.00 Build 0)  -->
<!DOCTYPE svg PUBLIC "-//W3C//DTD SVG 1.1//EN" "http://www.w3.org/Graphics/SVG/1.1/DTD/svg11.dtd">
<svg version="1.1" id="레이어_1" xmlns="http://www.w3.org/2000/svg" xmlns:xlink="http://www.w3.org/1999/xlink" x="0px"
	 y="0px" width="24px" height="24px" viewBox="0 0 24 24" enable-background="new 0 0 24 24" xml:space="preserve">
<path fill-rule="evenodd" clip-rule="evenodd" fill="#FFFFFF" d="M2,18.563c0-4.375,0-8.75,0-13.125
	c0.06-0.191,0.096-0.393,0.183-0.57c0.356-0.721,0.958-1.048,1.751-1.048c1.881,0,3.762,0.002,5.644-0.002
	c0.239-0.001,0.421,0.078,0.587,0.248c0.464,0.476,0.941,0.938,1.405,1.413c0.113,0.117,0.228,0.161,0.391,0.161
	c2.701-0.005,5.403-0.003,8.104-0.004c0.645,0,1.179,0.225,1.576,0.747C21.844,6.646,21.934,6.955,22,7.273
	c0,3.763,0,7.526,0,11.289c-0.012,0.043-0.026,0.086-0.035,0.13c-0.079,0.402-0.269,0.741-0.572,1.018
	c-0.389,0.353-0.854,0.474-1.366,0.473c-2.396-0.003-4.791-0.001-7.187-0.001c-2.956,0-5.911-0.002-8.867,0.002
	c-0.651,0.001-1.196-0.206-1.604-0.731C2.165,19.188,2.074,18.88,2,18.563z M16.54,15.638c0-0.65-0.358-1.271-0.919-1.572
	c-0.67-0.36-1.326-0.333-1.943,0.114c-0.255,0.185-0.48,0.198-0.756,0.051c-0.492-0.264-0.993-0.512-1.499-0.749
	c-0.283-0.133-0.348-0.349-0.341-0.634c0.006-0.259,0.131-0.404,0.349-0.511c0.485-0.236,0.974-0.467,1.445-0.728
	c0.316-0.176,0.568-0.146,0.857,0.067c0.641,0.473,1.526,0.416,2.15-0.104c0.624-0.52,0.834-1.402,0.504-2.121
	C16.022,8.655,15.163,8.22,14.33,8.41c-0.83,0.189-1.425,0.934-1.415,1.8c0.003,0.265-0.104,0.427-0.333,0.538
	c-0.508,0.248-1.018,0.495-1.517,0.76c-0.269,0.143-0.489,0.123-0.738-0.054c-1.076-0.76-2.476-0.246-2.816,1.026
	c-0.315,1.177,0.721,2.371,1.933,2.232c0.347-0.04,0.652-0.165,0.927-0.373c0.186-0.141,0.375-0.188,0.598-0.075
	c0.55,0.28,1.104,0.553,1.656,0.828c0.201,0.1,0.297,0.258,0.292,0.485c-0.002,0.143,0.004,0.289,0.035,0.427
	c0.205,0.906,1.022,1.558,2.067,1.425C15.847,17.324,16.538,16.522,16.54,15.638z"/>
</svg>
