<?xml version="1.0" encoding="utf-8"?>
<!-- Generator: Adobe Illustrator 16.0.0, SVG Export Plug-In . SVG Version: 6.00 Build 0)  -->
<!DOCTYPE svg PUBLIC "-//W3C//DTD SVG 1.1//EN" "http://www.w3.org/Graphics/SVG/1.1/DTD/svg11.dtd" [
	<!ENTITY ns_flows "http://ns.adobe.com/Flows/1.0/">
	<!ENTITY ns_extend "http://ns.adobe.com/Extensibility/1.0/">
	<!ENTITY ns_ai "http://ns.adobe.com/AdobeIllustrator/10.0/">
	<!ENTITY ns_graphs "http://ns.adobe.com/Graphs/1.0/">
]>
<svg version="1.1" id="레이어_1" xmlns:x="&ns_extend;" xmlns:i="&ns_ai;" xmlns:graph="&ns_graphs;"
	 xmlns="http://www.w3.org/2000/svg" xmlns:xlink="http://www.w3.org/1999/xlink" xmlns:a="http://ns.adobe.com/AdobeSVGViewerExtensions/3.0/"
	 x="0px" y="0px" width="20px" height="20px" viewBox="15 15 20 20" style="enable-background:new 15 15 20 20;"
	 xml:space="preserve">
<g style="opacity:0.5;">
	<path style="fill:#FFFFFF;" d="M25.229,16.579c0.077,0.016,0.157,0.032,0.242,0.047c0.961,0.173,1.783,1.101,1.796,2.026
		c0.031,2.354,0.03,4.521-0.007,6.63c-0.009,0.57-0.289,1.058-0.855,1.495c-0.42,0.322-0.909,0.493-1.42,0.493
		c-0.469,0-0.937-0.147-1.317-0.415c-0.403-0.281-0.698-0.687-0.854-1.169c-0.064-0.2-0.099-0.47-0.102-0.801
		c-0.016-1.629-0.012-3.29-0.01-4.896c0-0.348,0-0.695,0.001-1.043c0.002-1.049,0.426-1.706,1.419-2.194
		c0.054-0.025,0.219-0.063,0.34-0.092c0.098-0.023,0.206-0.048,0.32-0.079L25.229,16.579 M25.39,15c-0.264,0-0.526,0-0.79,0
		c-0.063,0.014-0.127,0.025-0.19,0.042c-0.334,0.094-0.691,0.142-0.997,0.292c-1.498,0.737-2.304,1.927-2.306,3.607
		c-0.002,1.984-0.011,3.97,0.008,5.954c0.003,0.424,0.048,0.867,0.177,1.268c0.548,1.694,2.09,2.684,3.692,2.684
		c0.825,0,1.668-0.263,2.401-0.827c0.886-0.683,1.451-1.588,1.471-2.714c0.037-2.225,0.036-4.451,0.006-6.677
		c-0.022-1.704-1.409-3.252-3.108-3.559C25.633,15.05,25.511,15.024,25.39,15L25.39,15z"/>
	<path style="fill:#FFFFFF;" d="M20.928,34.998c-0.034-0.018-0.066-0.036-0.1-0.052c-0.353-0.155-0.548-0.495-0.486-0.85
		c0.061-0.354,0.38-0.627,0.769-0.63c0.947-0.008,1.895-0.003,2.842-0.003c0.078,0,0.156,0,0.247,0c0-0.535,0-1.052,0-1.581
		c-0.273-0.053-0.551-0.092-0.823-0.159c-2.364-0.572-3.968-2.026-4.912-4.212c-0.347-0.804-0.468-1.663-0.464-2.536
		c0.002-0.482-0.001-0.963,0.001-1.445c0.002-0.485,0.325-0.833,0.769-0.835c0.454-0.002,0.774,0.348,0.779,0.847
		c0.007,0.619-0.005,1.237,0.027,1.854c0.071,1.363,0.634,2.517,1.627,3.449c1.689,1.586,3.68,1.974,5.817,1.14
		c1.875-0.73,3.044-2.154,3.336-4.163c0.113-0.767,0.063-1.557,0.085-2.337c0.014-0.473,0.378-0.817,0.837-0.787
		c0.355,0.024,0.699,0.329,0.702,0.676c0.009,0.949,0.071,1.902-0.089,2.844c-0.184,1.077-0.616,2.054-1.288,2.919
		c-0.764,0.981-1.7,1.751-2.862,2.234c-0.548,0.229-1.118,0.383-1.705,0.464c-0.077,0.011-0.155,0.026-0.245,0.042
		c0,0.521,0,1.039,0,1.587c0.075,0,0.152,0,0.228,0c0.941,0,1.882-0.003,2.823,0.002c0.492,0.003,0.838,0.35,0.813,0.808
		c-0.016,0.299-0.178,0.509-0.439,0.647c-0.051,0.027-0.103,0.052-0.151,0.078C26.35,34.998,23.639,34.998,20.928,34.998z"/>
</g>
</svg>
