<?xml version="1.0" encoding="utf-8"?>
<!-- Generator: Adobe Illustrator 16.0.0, SVG Export Plug-In . SVG Version: 6.00 Build 0)  -->
<!DOCTYPE svg PUBLIC "-//W3C//DTD SVG 1.1//EN" "http://www.w3.org/Graphics/SVG/1.1/DTD/svg11.dtd">
<svg version="1.1" id="레이어_1" xmlns="http://www.w3.org/2000/svg" xmlns:xlink="http://www.w3.org/1999/xlink" x="0px"
	 y="0px" width="24px" height="24px" viewBox="0 0 24 24" enable-background="new 0 0 24 24" xml:space="preserve">
<path fill-rule="evenodd" clip-rule="evenodd" fill="#FFFFFF" d="M16.419,7.59c0.112,0,0.19,0,0.27,0c0.894,0,1.787-0.002,2.681,0
	c1.526,0.004,2.626,1.097,2.628,2.622c0.005,3.052,0.004,6.104,0.001,9.155c-0.002,1.538-1.101,2.629-2.643,2.63
	c-3.044,0.003-6.089,0.003-9.133,0c-1.536-0.001-2.629-1.101-2.632-2.642c-0.002-0.886-0.001-1.772-0.001-2.659
	c0-0.079,0-0.158,0-0.278c-0.096,0-0.179,0-0.262,0c-0.895,0-1.787,0.002-2.682-0.001c-1.537-0.004-2.633-1.098-2.636-2.635
	C2.007,11.836,2.009,9.89,2.009,7.942c0-1.068,0.032-2.137-0.008-3.203C1.945,3.172,3.181,1.972,4.73,2
	c2.272,0.041,4.547,0.01,6.82,0.01c0.741,0,1.483-0.001,2.223,0c1.552,0.003,2.641,1.094,2.645,2.649
	c0.002,0.886,0.001,1.773,0.001,2.659C16.419,7.397,16.419,7.476,16.419,7.59z M14.794,20.604c1.504,0,3.008,0.001,4.512-0.002
	c0.144,0,0.293-0.004,0.432-0.039c0.554-0.141,0.866-0.587,0.866-1.225c0.001-3.016-0.013-6.03,0.009-9.045
	c0.006-0.769-0.522-1.34-1.329-1.317c-1.22,0.035-2.44,0.014-3.661,0.014c-1.83,0-3.662-0.008-5.492-0.001
	c-0.657,0.003-1.129,0.492-1.143,1.152c-0.007,0.313,0.004,0.625,0.004,0.938c-0.002,2.731,0.012,5.463-0.017,8.193
	c-0.009,0.799,0.525,1.36,1.351,1.341C11.815,20.58,13.305,20.604,14.794,20.604z M14.65,3.71c-0.238-0.206-0.487-0.304-0.775-0.304
	c-0.45,0-0.9,0.006-1.351-0.004c-0.167-0.003-0.283,0.047-0.4,0.165C10.208,5.491,8.287,7.41,6.366,9.331
	c-0.939,0.94-1.88,1.877-2.816,2.821c-0.065,0.066-0.136,0.166-0.138,0.251c-0.012,0.522-0.01,1.046,0.002,1.568
	c0.006,0.259,0.109,0.484,0.338,0.704c0.059-0.08,0.1-0.152,0.155-0.208c1.051-1.054,2.09-2.121,3.164-3.151
	c0.37-0.354,0.548-0.704,0.537-1.235c-0.02-0.924,0.44-1.632,1.221-2.125c0.526-0.333,1.114-0.394,1.718-0.361
	c0.166,0.009,0.283-0.045,0.4-0.164c1.176-1.185,2.359-2.364,3.54-3.545C14.537,3.834,14.584,3.78,14.65,3.71z M3.406,10.216
	c2.271-2.27,4.545-4.545,6.811-6.81c-0.807,0-1.648-0.002-2.49,0.004c-0.062,0-0.136,0.047-0.183,0.094
	C6.195,4.848,4.849,6.194,3.505,7.542C3.458,7.589,3.41,7.663,3.41,7.724C3.404,8.566,3.406,9.408,3.406,10.216z M15.009,5.461
	c-0.694,0.695-1.421,1.422-2.115,2.116c0.659,0,1.383,0,2.115,0C15.009,6.837,15.009,6.11,15.009,5.461z M7.58,12.85
	c-0.724,0.723-1.449,1.448-2.16,2.158c0.693,0,1.421,0,2.16,0C7.58,14.271,7.58,13.549,7.58,12.85z M3.417,5.565
	c0.717-0.714,1.441-1.436,2.15-2.144c-0.384,0-0.805-0.032-1.219,0.008C3.882,3.474,3.463,3.905,3.425,4.37
	C3.391,4.778,3.417,5.191,3.417,5.565z"/>
</svg>
