<?xml version="1.0" encoding="utf-8"?>
<!-- Generator: Adobe Illustrator 16.0.0, SVG Export Plug-In . SVG Version: 6.00 Build 0)  -->
<!DOCTYPE svg PUBLIC "-//W3C//DTD SVG 1.1//EN" "http://www.w3.org/Graphics/SVG/1.1/DTD/svg11.dtd">
<svg version="1.1" id="레이어_1" xmlns="http://www.w3.org/2000/svg" xmlns:xlink="http://www.w3.org/1999/xlink" x="0px"
	 y="0px" width="24px" height="24px" viewBox="0 0 24 24" enable-background="new 0 0 24 24" xml:space="preserve">
<g>
	<path fill-rule="evenodd" clip-rule="evenodd" fill="#FFFFFF" d="M8.029,21.248c-0.438-0.159-0.598-0.479-0.575-0.931
		C7.483,19.664,7.43,19,7.524,18.356c0.278-1.907,1.342-3.242,3.1-4.014c0.617-0.272,1.267-0.385,1.941-0.385
		c1.441,0.002,2.885-0.006,4.326,0.004c2.441,0.016,4.434,1.619,4.987,4.003c0.052,0.226,0.081,0.456,0.121,0.685
		c0,0.672,0,1.346,0,2.018c-0.093,0.292-0.287,0.486-0.579,0.581C16.957,21.248,12.493,21.248,8.029,21.248z"/>
	<path fill-rule="evenodd" clip-rule="evenodd" fill="#FFFFFF" d="M15.116,3.749c0.271,0.057,0.547,0.096,0.813,0.171
		c1.923,0.548,3.249,2.374,3.163,4.336c-0.096,2.081-1.533,3.775-3.534,4.165c-2.469,0.479-4.821-1.23-5.151-3.744
		c-0.316-2.41,1.421-4.632,3.829-4.898c0.044-0.004,0.088-0.02,0.132-0.029C14.617,3.749,14.866,3.749,15.116,3.749z"/>
	<g>
		<path fill="#FFFFFF" d="M6.278,18.942c0.167-1.143,0.621-2.074,1.331-2.809c-0.674,0-1.347,0-2.021-0.001
			c-0.473,0-0.931,0.079-1.363,0.271c-1.234,0.541-1.979,1.479-2.176,2.817c-0.065,0.451-0.027,0.917-0.048,1.376
			c-0.017,0.316,0.095,0.541,0.402,0.654c1.278,0,2.557,0,3.835,0c-0.025-0.105-0.038-0.221-0.032-0.348
			C6.237,20.25,6.184,19.586,6.278,18.942z"/>
	</g>
	<path fill-rule="evenodd" clip-rule="evenodd" fill="#FFFFFF" d="M7.379,8.967c0.191,0.039,0.384,0.067,0.57,0.12
		c1.35,0.385,2.28,1.667,2.221,3.043c-0.067,1.461-1.076,2.65-2.48,2.924c-1.733,0.337-3.384-0.863-3.616-2.627
		C3.85,10.734,5.071,9.174,6.761,8.987c0.031-0.004,0.062-0.014,0.093-0.021C7.027,8.967,7.203,8.967,7.379,8.967z"/>
</g>
</svg>
