<?xml version="1.0" encoding="utf-8"?>
<!-- Generator: Adobe Illustrator 16.0.0, SVG Export Plug-In . SVG Version: 6.00 Build 0)  -->
<!DOCTYPE svg PUBLIC "-//W3C//DTD SVG 1.1//EN" "http://www.w3.org/Graphics/SVG/1.1/DTD/svg11.dtd" [
	<!ENTITY ns_flows "http://ns.adobe.com/Flows/1.0/">
	<!ENTITY ns_extend "http://ns.adobe.com/Extensibility/1.0/">
	<!ENTITY ns_ai "http://ns.adobe.com/AdobeIllustrator/10.0/">
	<!ENTITY ns_graphs "http://ns.adobe.com/Graphs/1.0/">
]>
<svg version="1.1" id="레이어_1" xmlns:x="&ns_extend;" xmlns:i="&ns_ai;" xmlns:graph="&ns_graphs;"
	 xmlns="http://www.w3.org/2000/svg" xmlns:xlink="http://www.w3.org/1999/xlink" xmlns:a="http://ns.adobe.com/AdobeSVGViewerExtensions/3.0/"
	 x="0px" y="0px" width="20px" height="20px" viewBox="15 15 20 20" style="enable-background:new 15 15 20 20;"
	 xml:space="preserve">
<g style="opacity:0.5;">
	<path style="fill:#FFFFFF;" d="M29.111,18.869c0.004,0.004,0.008,0.013,0.008,0.026v12.208c0,0.016-0.004,0.022-0.008,0.026H16.782
		c-0.005-0.004-0.009-0.012-0.009-0.026V18.895c0-0.014,0.004-0.022,0.009-0.026H29.111 M28.959,17H16.932
		C15.866,17,15,17.872,15,18.946v12.109C15,32.128,15.866,33,16.932,33h12.027c1.066,0,1.934-0.871,1.934-1.945V18.946
		C30.893,17.872,30.027,17,28.959,17L28.959,17z"/>
	<polygon style="fill:#FFFFFF;" points="35,19.517 30.7,23.72 30.7,26.43 35,30.77 	"/>
</g>
</svg>
