<?xml version="1.0" encoding="utf-8"?>
<!-- Generator: Adobe Illustrator 16.0.0, SVG Export Plug-In . SVG Version: 6.00 Build 0)  -->
<!DOCTYPE svg PUBLIC "-//W3C//DTD SVG 1.1//EN" "http://www.w3.org/Graphics/SVG/1.1/DTD/svg11.dtd">
<svg version="1.1" id="레이어_1" xmlns="http://www.w3.org/2000/svg" xmlns:xlink="http://www.w3.org/1999/xlink" x="0px"
	 y="0px" width="24px" height="24px" viewBox="0 0 24 24" enable-background="new 0 0 24 24" xml:space="preserve">
<path fill-rule="evenodd" clip-rule="evenodd" fill="#FFFFFF" d="M18.671,9.932c0.146-0.145,0.285-0.295,0.438-0.435
	c0.965-0.896,1.932-1.789,2.896-2.686c0.186-0.17,0.388-0.262,0.648-0.164C22.909,6.746,23,6.933,23,7.18
	c-0.003,3.214-0.003,6.427,0,9.642c0,0.247-0.093,0.434-0.349,0.529c-0.262,0.1-0.465,0.006-0.648-0.166
	c-1.049-0.973-2.102-1.945-3.151-2.922c-0.065-0.061-0.114-0.139-0.169-0.209c-0.027,0.012-0.055,0.024-0.081,0.036
	c0,0.081,0,0.162,0,0.244c0,1.053,0.001,2.103-0.001,3.15c0,0.44-0.199,0.625-0.673,0.625c-5.423,0.002-10.845,0.002-16.268,0
	c-0.464,0-0.659-0.178-0.659-0.609C1,13.832,1,10.166,1.001,6.499c0-0.432,0.194-0.609,0.659-0.609c5.423-0.001,10.846,0,16.269,0
	c0.475,0,0.672,0.184,0.673,0.625c0.001,1.05,0,2.1,0,3.149c0,0.078,0,0.155,0,0.233C18.624,9.908,18.647,9.92,18.671,9.932z
	 M3.206,16.055c4.399,0,8.782,0,13.169,0c0-2.716,0-5.412,0-8.108c-4.399,0-8.777,0-13.169,0
	C3.206,10.654,3.206,13.348,3.206,16.055z M19.615,11.988c0.38,0.351,0.786,0.727,1.175,1.086c0-0.704,0-1.45,0-2.174
	C20.391,11.27,19.987,11.644,19.615,11.988z"/>
</svg>
