<?xml version="1.0" encoding="utf-8"?>
<!-- Generator: Adobe Illustrator 16.0.0, SVG Export Plug-In . SVG Version: 6.00 Build 0)  -->
<!DOCTYPE svg PUBLIC "-//W3C//DTD SVG 1.1//EN" "http://www.w3.org/Graphics/SVG/1.1/DTD/svg11.dtd">
<svg version="1.1" id="레이어_1" xmlns="http://www.w3.org/2000/svg" xmlns:xlink="http://www.w3.org/1999/xlink" x="0px"
	 y="0px" width="13px" height="13px" viewBox="0 0 13 13" enable-background="new 0 0 13 13" xml:space="preserve">
<g id="Page-1">
	<g id="_x30_37---Waypoint-Flag" transform="translate(0 -1)">
		<path id="Shape" fill="#FC3232" d="M3.354,13.983l0.25-0.073c0.239-0.069,0.38-0.328,0.313-0.578L1.14,3.714
			C1.099,3.563,1.005,3.436,0.875,3.36c-0.131-0.076-0.285-0.096-0.43-0.055l-0.032,0.01c-0.3,0.088-0.476,0.411-0.392,0.723
			l2.775,9.618C2.864,13.907,3.113,14.052,3.354,13.983L3.354,13.983z"/>
		<path id="Shape_1_" fill="#FC3232" d="M12.934,7.67c-0.906-0.469-1.744-1.067-2.49-1.776c-0.063-0.06-0.086-0.152-0.063-0.235
			c0.371-1.451,0.645-2.926,0.82-4.414c0.029-0.25-0.1-0.321-0.234-0.151C8.305,4.398,3.698,0.487,0.957,3.492
			C0.99,3.557,1.015,3.624,1.034,3.693l1.853,6.887c2.746-2.968,7.336,0.917,9.995-2.38C13.016,8.029,13.041,7.719,12.934,7.67
			L12.934,7.67z"/>
	</g>
</g>
</svg>
