<?xml version="1.0" encoding="utf-8"?>
<!-- Generator: Adobe Illustrator 16.0.0, SVG Export Plug-In . SVG Version: 6.00 Build 0)  -->
<!DOCTYPE svg PUBLIC "-//W3C//DTD SVG 1.1//EN" "http://www.w3.org/Graphics/SVG/1.1/DTD/svg11.dtd">
<svg version="1.1" id="bold_v2" xmlns="http://www.w3.org/2000/svg" xmlns:xlink="http://www.w3.org/1999/xlink" x="0px" y="0px"
	 width="20px" height="20px" viewBox="246 246 20 20" enable-background="new 246 246 20 20" xml:space="preserve">
<path fill="#FFFFFF" d="M256,266c5.514,0,10-4.486,10-10c0-5.514-4.486-10-10-10c-5.514,0-10,4.486-10,10
	C246,261.514,250.486,266,256,266z M260.167,251.888c0.919,0,1.666,0.747,1.666,1.667c0,0.919-0.747,1.667-1.666,1.667
	c-0.92,0-1.667-0.748-1.667-1.667C258.5,252.635,259.247,251.888,260.167,251.888z M251.833,251.888
	c0.919,0,1.667,0.747,1.667,1.667c0,0.919-0.748,1.667-1.667,1.667c-0.919,0-1.667-0.748-1.667-1.667
	C250.167,252.635,250.914,251.888,251.833,251.888z M249.038,257.921c0.119-0.16,0.305-0.254,0.503-0.254h12.917
	c0.198,0,0.386,0.094,0.504,0.254c0.117,0.16,0.152,0.366,0.093,0.556c-0.967,3.114-3.802,5.207-7.055,5.207
	c-3.253,0-6.089-2.093-7.055-5.207C248.886,258.287,248.921,258.081,249.038,257.921L249.038,257.921z"/>
</svg>
