<?xml version="1.0" encoding="utf-8"?>
<!-- Generator: Adobe Illustrator 16.0.0, SVG Export Plug-In . SVG Version: 6.00 Build 0)  -->
<!DOCTYPE svg PUBLIC "-//W3C//DTD SVG 1.1//EN" "http://www.w3.org/Graphics/SVG/1.1/DTD/svg11.dtd" [
	<!ENTITY ns_flows "http://ns.adobe.com/Flows/1.0/">
	<!ENTITY ns_extend "http://ns.adobe.com/Extensibility/1.0/">
	<!ENTITY ns_ai "http://ns.adobe.com/AdobeIllustrator/10.0/">
	<!ENTITY ns_graphs "http://ns.adobe.com/Graphs/1.0/">
]>
<svg version="1.1" id="레이어_1" xmlns:x="&ns_extend;" xmlns:i="&ns_ai;" xmlns:graph="&ns_graphs;"
	 xmlns="http://www.w3.org/2000/svg" xmlns:xlink="http://www.w3.org/1999/xlink" xmlns:a="http://ns.adobe.com/AdobeSVGViewerExtensions/3.0/"
	 x="0px" y="0px" width="20px" height="20px" viewBox="15 15 20 20" style="enable-background:new 15 15 20 20;"
	 xml:space="preserve">
<g style="opacity:0.5;">
	<g>
		<polygon style="fill:#FFFFFF;" points="17.677,16.667 33.5,32.181 32.322,33.335 16.5,17.82 		"/>
	</g>
	<g>
		<path style="fill:#FFFFFF;" d="M26.421,26.777c-0.422,0.323-0.916,0.494-1.431,0.494c-0.475,0-0.946-0.148-1.33-0.415
			c-0.407-0.281-0.703-0.687-0.861-1.17c-0.065-0.2-0.1-0.47-0.103-0.801c-0.011-1.075-0.012-2.159-0.012-3.237l-1.604-1.574
			c-0.005,1.608-0.01,3.217,0.005,4.825c0.005,0.424,0.049,0.867,0.18,1.268c0.553,1.694,2.107,2.684,3.726,2.684
			c0.833,0,1.683-0.264,2.42-0.827c0.344-0.263,0.639-0.558,0.873-0.887l-1.179-1.153C26.964,26.268,26.743,26.531,26.421,26.777z"
			/>
		<path style="fill:#FFFFFF;" d="M22.688,18.944c0.002-1.049,0.431-1.706,1.434-2.195c0.054-0.025,0.221-0.063,0.342-0.092
			c0.099-0.022,0.209-0.048,0.323-0.079h0.449c0.077,0.016,0.157,0.032,0.243,0.047c0.97,0.173,1.8,1.101,1.813,2.026
			c0.024,1.832,0.027,3.55,0.013,5.217l1.583,1.552c0.002-0.038,0.008-0.074,0.009-0.112c0.037-2.225,0.035-4.452,0.007-6.678
			c-0.023-1.704-1.423-3.252-3.136-3.559c-0.123-0.021-0.246-0.048-0.367-0.072c-0.267,0-0.531,0-0.798,0
			c-0.063,0.014-0.129,0.025-0.192,0.042c-0.336,0.094-0.696,0.142-1.005,0.292c-1.174,0.572-1.919,1.421-2.198,2.555l1.48,1.452
			C22.688,19.21,22.688,19.078,22.688,18.944z"/>
		<path style="fill:#FFFFFF;" d="M27.037,29.986c-2.157,0.834-4.164,0.446-5.868-1.14c-1.003-0.933-1.571-2.086-1.643-3.45
			c-0.031-0.617-0.02-1.236-0.026-1.854c-0.005-0.5-0.328-0.85-0.787-0.848c-0.448,0.001-0.773,0.349-0.776,0.836
			c-0.002,0.481,0.001,0.963,0,1.445c-0.004,0.875,0.118,1.732,0.468,2.537c0.953,2.185,2.571,3.639,4.955,4.212
			c0.276,0.067,0.557,0.107,0.832,0.159c0,0.529,0,1.046,0,1.581c-0.092,0-0.17,0-0.249,0c-0.956,0-1.912-0.003-2.868,0.004
			c-0.392,0.002-0.712,0.276-0.774,0.63c-0.062,0.354,0.134,0.693,0.49,0.85c0.035,0.015,0.068,0.034,0.102,0.052
			c2.736,0,5.47,0,8.207,0c0.05-0.027,0.104-0.052,0.153-0.078c0.264-0.14,0.428-0.349,0.443-0.647
			c0.024-0.457-0.324-0.805-0.822-0.808c-0.948-0.007-1.898-0.002-2.849-0.002c-0.076,0-0.153,0-0.229,0c0-0.549,0-1.066,0-1.588
			c0.091-0.016,0.169-0.03,0.248-0.041c0.594-0.082,1.168-0.235,1.72-0.464c1.1-0.453,1.995-1.166,2.737-2.062l-1.086-1.065
			C28.839,29.01,28.041,29.6,27.037,29.986z"/>
		<path style="fill:#FFFFFF;" d="M31.952,26.219c0.161-0.942,0.099-1.895,0.089-2.844c-0.003-0.347-0.35-0.652-0.708-0.677
			c-0.463-0.031-0.83,0.313-0.846,0.787c-0.021,0.78,0.03,1.571-0.084,2.338c-0.046,0.309-0.121,0.601-0.207,0.883l1.217,1.193
			C31.665,27.369,31.852,26.811,31.952,26.219z"/>
	</g>
</g>
</svg>
