<?xml version="1.0" encoding="utf-8"?>
<!-- Generator: Adobe Illustrator 16.0.0, SVG Export Plug-In . SVG Version: 6.00 Build 0)  -->
<!DOCTYPE svg PUBLIC "-//W3C//DTD SVG 1.1//EN" "http://www.w3.org/Graphics/SVG/1.1/DTD/svg11.dtd" [
	<!ENTITY ns_flows "http://ns.adobe.com/Flows/1.0/">
	<!ENTITY ns_extend "http://ns.adobe.com/Extensibility/1.0/">
	<!ENTITY ns_ai "http://ns.adobe.com/AdobeIllustrator/10.0/">
	<!ENTITY ns_graphs "http://ns.adobe.com/Graphs/1.0/">
]>
<svg version="1.1" id="레이어_1" xmlns:x="&ns_extend;" xmlns:i="&ns_ai;" xmlns:graph="&ns_graphs;"
	 xmlns="http://www.w3.org/2000/svg" xmlns:xlink="http://www.w3.org/1999/xlink" xmlns:a="http://ns.adobe.com/AdobeSVGViewerExtensions/3.0/"
	 x="0px" y="0px" width="36px" height="30px" viewBox="-5 0 36 30" style="enable-background:new -5 0 36 30;" xml:space="preserve"
	>
<g>
	<g>
		<path style="fill:#FFFFFF;" d="M21.746,11.25h-2.5v-3.4c0.004-0.101,0.105-2.199-1.309-3.697C16.9,3.056,15.268,2.5,13.083,2.5
			c-2.153,0-3.789,0.566-4.858,1.683C6.701,5.771,6.75,8.029,6.75,8.051l0.001,3.199h-2.5V8.104C4.248,8.02,4.142,4.827,6.418,2.452
			C7.98,0.825,10.222,0,13.083,0c2.918,0,5.172,0.83,6.7,2.466c2.152,2.306,1.969,5.341,1.96,5.47L21.746,11.25z"/>
	</g>
	<g>
		<g>
			<path style="fill:#FFFFFF;" d="M23.5,12.5v15h-21v-15H23.5 M24.268,10H1.732C0.777,10,0,10.768,0,11.714v16.571
				C0,29.23,0.777,30,1.732,30h22.535C25.223,30,26,29.23,26,28.285V11.714C26,10.768,25.223,10,24.268,10L24.268,10z"/>
		</g>
		<path style="fill:#FFFFFF;" d="M10.049,18.523c0-1.627,1.323-2.948,2.951-2.948s2.951,1.321,2.951,2.948
			c0,1.09-0.598,2.031-1.477,2.543v3.357h-2.953v-3.357C10.646,20.557,10.049,19.613,10.049,18.523z"/>
	</g>
</g>
</svg>
