<?xml version="1.0" encoding="utf-8"?>
<!-- Generator: Adobe Illustrator 16.0.0, SVG Export Plug-In . SVG Version: 6.00 Build 0)  -->
<!DOCTYPE svg PUBLIC "-//W3C//DTD SVG 1.1//EN" "http://www.w3.org/Graphics/SVG/1.1/DTD/svg11.dtd">
<svg version="1.1" id="bold_v2" xmlns="http://www.w3.org/2000/svg" xmlns:xlink="http://www.w3.org/1999/xlink" x="0px" y="0px"
	 width="20px" height="20px" viewBox="246 246 20 20" enable-background="new 246 246 20 20" xml:space="preserve">
<g>
	<path fill="#FFFFFF" d="M264.333,262.666h-16.667c-0.92,0-1.667-0.746-1.667-1.666v-10c0-0.921,0.746-1.667,1.667-1.667h16.667
		c0.921,0,1.667,0.746,1.667,1.667v10C266,261.92,265.254,262.666,264.333,262.666z M250.444,253.362v-1.389
		c0-0.23-0.187-0.417-0.417-0.417h-1.389c-0.23,0-0.417,0.187-0.417,0.417v1.389c0,0.23,0.187,0.417,0.417,0.417h1.389
		C250.258,253.778,250.444,253.592,250.444,253.362z M253.777,253.362v-1.389c0-0.23-0.187-0.417-0.417-0.417h-1.389
		c-0.23,0-0.417,0.187-0.417,0.417v1.389c0,0.23,0.187,0.417,0.417,0.417h1.389C253.591,253.778,253.777,253.592,253.777,253.362z
		 M257.111,253.362v-1.389c0-0.23-0.187-0.417-0.417-0.417h-1.389c-0.23,0-0.417,0.187-0.417,0.417v1.389
		c0,0.23,0.187,0.417,0.417,0.417h1.389C256.925,253.778,257.111,253.592,257.111,253.362z M260.444,253.362v-1.389
		c0-0.23-0.187-0.417-0.417-0.417h-1.389c-0.23,0-0.417,0.187-0.417,0.417v1.389c0,0.23,0.187,0.417,0.417,0.417h1.389
		C260.258,253.778,260.444,253.592,260.444,253.362z M263.777,253.362v-1.389c0-0.23-0.187-0.417-0.416-0.417h-1.39
		c-0.229,0-0.416,0.187-0.416,0.417v1.389c0,0.23,0.187,0.417,0.416,0.417h1.39C263.591,253.778,263.777,253.592,263.777,253.362z
		 M252.111,256.696v-1.389c0-0.23-0.187-0.417-0.417-0.417h-1.389c-0.23,0-0.417,0.187-0.417,0.417v1.389
		c0,0.23,0.187,0.416,0.417,0.416h1.389C251.924,257.112,252.111,256.926,252.111,256.696z M255.444,256.696v-1.389
		c0-0.23-0.187-0.417-0.417-0.417h-1.389c-0.23,0-0.417,0.187-0.417,0.417v1.389c0,0.23,0.187,0.416,0.417,0.416h1.389
		C255.258,257.112,255.444,256.926,255.444,256.696z M258.777,256.696v-1.389c0-0.23-0.187-0.417-0.416-0.417h-1.39
		c-0.229,0-0.416,0.187-0.416,0.417v1.389c0,0.23,0.187,0.416,0.416,0.416h1.39C258.591,257.112,258.777,256.926,258.777,256.696z
		 M262.111,256.696v-1.389c0-0.23-0.188-0.417-0.417-0.417h-1.389c-0.23,0-0.417,0.187-0.417,0.417v1.389
		c0,0.23,0.187,0.416,0.417,0.416h1.389C261.924,257.112,262.111,256.926,262.111,256.696z M250.444,260.028v-1.389
		c0-0.23-0.187-0.416-0.417-0.416h-1.389c-0.23,0-0.417,0.186-0.417,0.416v1.389c0,0.23,0.187,0.418,0.417,0.418h1.389
		C250.258,260.446,250.444,260.258,250.444,260.028z M260.444,260.028v-1.389c0-0.23-0.187-0.416-0.417-0.416h-8.055
		c-0.23,0-0.417,0.186-0.417,0.416v1.389c0,0.23,0.187,0.418,0.417,0.418h8.055C260.258,260.446,260.444,260.258,260.444,260.028z
		 M263.777,260.028v-1.389c0-0.23-0.187-0.416-0.416-0.416h-1.39c-0.229,0-0.416,0.186-0.416,0.416v1.389
		c0,0.23,0.187,0.418,0.416,0.418h1.39C263.591,260.446,263.777,260.258,263.777,260.028z"/>
</g>
</svg>
