<?xml version="1.0" encoding="utf-8"?>
<!-- Generator: Adobe Illustrator 16.0.0, SVG Export Plug-In . SVG Version: 6.00 Build 0)  -->
<!DOCTYPE svg PUBLIC "-//W3C//DTD SVG 1.1//EN" "http://www.w3.org/Graphics/SVG/1.1/DTD/svg11.dtd">
<svg version="1.1" id="레이어_1" xmlns="http://www.w3.org/2000/svg" xmlns:xlink="http://www.w3.org/1999/xlink" x="0px"
	 y="0px" width="24px" height="24px" viewBox="0 0 24 24" enable-background="new 0 0 24 24" xml:space="preserve">
<path fill-rule="evenodd" clip-rule="evenodd" fill="#EA4335" d="M15.241,10.854c-2.169-0.714-4.327-0.701-6.504-0.001
	c-0.092,0.658-0.22,1.326-0.271,2.002c-0.054,0.698-0.317,1.213-0.979,1.499c-0.197,0.085-0.389,0.198-0.56,0.328
	c-0.518,0.396-1.042,0.784-1.529,1.213c-0.672,0.591-1.374,0.597-2.005-0.031c-0.643-0.641-1.284-1.282-1.925-1.925
	c-0.632-0.634-0.622-1.393,0.014-2.012c1.981-1.926,4.312-3.225,6.998-3.87c1.598-0.384,3.217-0.5,4.857-0.351
	c2.458,0.223,4.735,0.978,6.788,2.34c0.852,0.566,1.66,1.213,2.415,1.903c0.619,0.565,0.593,1.347,0.045,1.946
	c-0.65,0.714-1.343,1.395-2.051,2.053c-0.529,0.493-1.267,0.574-1.825,0.055c-0.75-0.698-1.559-1.307-2.466-1.786
	c-0.427-0.226-0.63-0.601-0.684-1.089C15.478,12.372,15.351,11.62,15.241,10.854z"/>
</svg>
