<?xml version="1.0" encoding="utf-8"?>
<!-- Generator: Adobe Illustrator 16.0.0, SVG Export Plug-In . SVG Version: 6.00 Build 0)  -->
<!DOCTYPE svg PUBLIC "-//W3C//DTD SVG 1.1//EN" "http://www.w3.org/Graphics/SVG/1.1/DTD/svg11.dtd">
<svg version="1.1" id="레이어_1" xmlns="http://www.w3.org/2000/svg" xmlns:xlink="http://www.w3.org/1999/xlink" x="0px"
	 y="0px" width="24px" height="24px" viewBox="0 0 24 24" enable-background="new 0 0 24 24" xml:space="preserve">
<g opacity="0.5">
	<path fill-rule="evenodd" clip-rule="evenodd" fill="#FFFFFF" d="M3.534,5.388C2.728,4.615,3.278,5.148,2.533,4.434
		c-0.228-0.22-0.458-0.437-0.682-0.658c-0.3-0.297-0.302-0.586-0.006-0.88c0.223-0.223,0.452-0.441,0.682-0.658
		C2.863,1.919,3.158,1.92,3.498,2.246c1.707,1.643,2.114,2.037,3.819,3.68c5.336,5.143,9.374,9.035,14.712,14.178
		c0.063,0.061,0.128,0.119,0.186,0.186c0.209,0.242,0.219,0.518-0.003,0.747c-0.264,0.279-0.543,0.547-0.831,0.806
		c-0.252,0.225-0.556,0.207-0.816-0.034c-0.303-0.278-0.595-0.569-0.892-0.856c-1.169-1.124-1.042-1-2.204-2.127
		c-0.155-0.152-0.309-0.22-0.533-0.22C11.746,18.61,6.557,18.61,1.368,18.61c-0.63,0-0.796-0.157-0.796-0.761
		c0-3.899,0-7.799,0-11.697c0-0.607,0.164-0.765,0.792-0.765C2.058,5.388,2.751,5.388,3.534,5.388z M14.916,16.385
		c-0.067-0.071-0.1-0.111-0.136-0.146c-2.942-2.836-5.884-5.673-8.831-8.504c-0.083-0.079-0.23-0.132-0.349-0.133
		c-0.83-0.011-1.661-0.006-2.491-0.005c-0.078,0-0.156,0.01-0.246,0.016c0,2.93,0,5.843,0,8.772
		C6.874,16.385,10.869,16.385,14.916,16.385z"/>
	<path fill-rule="evenodd" clip-rule="evenodd" fill="#FFFFFF" d="M18.94,9.772c0.059-0.076,0.11-0.159,0.179-0.226
		c1.084-1.048,2.171-2.093,3.255-3.142c0.198-0.191,0.409-0.309,0.693-0.196c0.279,0.111,0.361,0.327,0.361,0.602
		c-0.004,3.459-0.004,6.92,0,10.381c0,0.273-0.086,0.488-0.365,0.598c-0.285,0.109-0.495-0.009-0.692-0.198
		c-1.084-1.051-2.172-2.096-3.256-3.145c-0.067-0.066-0.113-0.152-0.17-0.23c-0.024,0.017-0.048,0.033-0.073,0.049
		c0,0.535,0,1.071,0,1.667c-0.099-0.081-0.159-0.123-0.209-0.172c-0.645-0.619-1.295-1.237-1.928-1.866
		c-0.093-0.091-0.161-0.248-0.161-0.378c-0.01-1.858-0.008-3.717-0.008-5.576c0-0.101,0-0.203,0-0.344c-0.123,0-0.227,0-0.329,0
		c-1.929,0-3.858-0.002-5.786,0.004c-0.185,0.001-0.314-0.049-0.445-0.176c-0.625-0.614-1.26-1.22-1.891-1.828
		C8.061,5.542,8.01,5.485,7.926,5.399c0.115-0.005,0.189-0.011,0.266-0.011c3.313-0.001,6.625-0.001,9.938-0.001
		c0.53,0,0.728,0.189,0.729,0.701c0,1.128,0,2.254,0,3.382c0,0.083,0,0.168,0,0.252C18.887,9.739,18.913,9.756,18.94,9.772z
		 M19.912,11.964c0.408,0.395,0.828,0.801,1.215,1.175c0-0.745,0-1.553,0-2.347C20.703,11.199,20.284,11.605,19.912,11.964z"/>
</g>
</svg>
