<?xml version="1.0" encoding="utf-8"?>
<!-- Generator: Adobe Illustrator 16.0.0, SVG Export Plug-In . SVG Version: 6.00 Build 0)  -->
<!DOCTYPE svg PUBLIC "-//W3C//DTD SVG 1.1//EN" "http://www.w3.org/Graphics/SVG/1.1/DTD/svg11.dtd">
<svg version="1.1" id="레이어_1" xmlns="http://www.w3.org/2000/svg" xmlns:xlink="http://www.w3.org/1999/xlink" x="0px"
	 y="0px" width="24px" height="24px" viewBox="0 0 24 24" enable-background="new 0 0 24 24" xml:space="preserve">
<g>
	<path fill-rule="evenodd" clip-rule="evenodd" fill="#FFFFFF" d="M12.001,20.126c-2.579,0-5.158,0.001-7.736-0.001
		c-1.088-0.001-1.959-0.667-2.201-1.69c-0.047-0.199-0.061-0.41-0.061-0.616C2,14.563,2,11.306,2,8.049
		c0.001-1.356,0.934-2.293,2.292-2.3c0.912-0.004,1.825-0.007,2.738,0.004C7.22,5.756,7.296,5.692,7.345,5.521
		c0.092-0.318,0.201-0.631,0.309-0.944c0.162-0.472,0.48-0.701,0.984-0.701c2.032-0.001,4.064-0.001,6.097,0
		c0.512,0,0.825,0.231,0.991,0.72c0.102,0.3,0.212,0.599,0.295,0.905c0.052,0.19,0.138,0.256,0.342,0.253
		c1.113-0.011,2.227-0.008,3.34-0.004c1.057,0.003,1.887,0.577,2.181,1.522c0.073,0.233,0.109,0.488,0.109,0.732
		c0.008,3.291,0.008,6.582,0.004,9.873c-0.001,1.299-0.956,2.247-2.26,2.248C17.159,20.128,14.58,20.126,12.001,20.126z
		 M7.003,12.937c0.005,2.586,2.099,4.678,4.684,4.678c2.595,0.001,4.694-2.104,4.682-4.697c-0.012-2.59-2.109-4.677-4.691-4.67
		C9.093,8.255,6.999,10.356,7.003,12.937z M18.557,8.261c-0.535,0.002-0.926,0.397-0.922,0.932c0.004,0.52,0.425,0.935,0.939,0.927
		c0.513-0.008,0.936-0.438,0.931-0.945C19.5,8.653,19.091,8.259,18.557,8.261z"/>
	<path fill-rule="evenodd" clip-rule="evenodd" fill="#FFFFFF" d="M11.698,10.124c1.555,0.005,2.799,1.255,2.796,2.812
		c-0.002,1.563-1.262,2.813-2.827,2.804c-1.55-0.008-2.794-1.268-2.787-2.823C8.886,11.364,10.144,10.118,11.698,10.124z"/>
</g>
</svg>
