<?xml version="1.0" encoding="utf-8"?>
<!-- Generator: Adobe Illustrator 16.0.0, SVG Export Plug-In . SVG Version: 6.00 Build 0)  -->
<!DOCTYPE svg PUBLIC "-//W3C//DTD SVG 1.1//EN" "http://www.w3.org/Graphics/SVG/1.1/DTD/svg11.dtd" [
	<!ENTITY ns_flows "http://ns.adobe.com/Flows/1.0/">
	<!ENTITY ns_extend "http://ns.adobe.com/Extensibility/1.0/">
	<!ENTITY ns_ai "http://ns.adobe.com/AdobeIllustrator/10.0/">
	<!ENTITY ns_graphs "http://ns.adobe.com/Graphs/1.0/">
]>
<svg version="1.1" id="레이어_1" xmlns:x="&ns_extend;" xmlns:i="&ns_ai;" xmlns:graph="&ns_graphs;"
	 xmlns="http://www.w3.org/2000/svg" xmlns:xlink="http://www.w3.org/1999/xlink" xmlns:a="http://ns.adobe.com/AdobeSVGViewerExtensions/3.0/"
	 x="0px" y="0px" width="36px" height="30px" viewBox="-5 0 36 30" style="enable-background:new -5 0 36 30;" xml:space="preserve"
	>
<g>
	<g>
		<path style="fill:#FFFFFF;" d="M12.496,11.25h-2.5v-3.4C10,7.749,10.102,5.65,8.688,4.153C7.65,3.056,6.018,2.5,3.833,2.5
			c-2.153,0-3.789,0.566-4.858,1.683C-2.549,5.771-2.5,8.029-2.499,8.051l0.001,3.199h-2.5V8.104
			C-5.002,8.02-5.107,4.827-2.831,2.452C-1.27,0.825,0.973,0,3.834,0c2.918,0,5.172,0.83,6.699,2.466
			c2.152,2.306,1.969,5.341,1.96,5.47L12.496,11.25z"/>
	</g>
	<g>
		<g>
			<path style="fill:#FFFFFF;" d="M28.5,12.5v15h-21v-15H28.5 M29.268,10H6.732C5.777,10,5,10.768,5,11.714v16.571
				C5,29.23,5.777,30,6.732,30h22.535C30.223,30,31,29.23,31,28.285V11.714C31,10.768,30.223,10,29.268,10L29.268,10z"/>
		</g>
		<path style="fill:#FFFFFF;" d="M15.049,18.523c0-1.627,1.323-2.948,2.951-2.948s2.951,1.321,2.951,2.948
			c0,1.09-0.598,2.031-1.477,2.543v3.357h-2.953v-3.357C15.646,20.557,15.049,19.613,15.049,18.523z"/>
	</g>
</g>
</svg>
