<?xml version="1.0" encoding="utf-8"?>
<!-- Generator: Adobe Illustrator 16.0.0, SVG Export Plug-In . SVG Version: 6.00 Build 0)  -->
<!DOCTYPE svg PUBLIC "-//W3C//DTD SVG 1.1//EN" "http://www.w3.org/Graphics/SVG/1.1/DTD/svg11.dtd">
<svg version="1.1" id="레이어_1" xmlns="http://www.w3.org/2000/svg" xmlns:xlink="http://www.w3.org/1999/xlink" x="0px"
	 y="0px" width="13px" height="13px" viewBox="3.5 3.5 13 13" enable-background="new 3.5 3.5 13 13" xml:space="preserve">
<path fill="#FFFFFF" d="M15.688,8.781c0.447,0,0.813-0.364,0.813-0.813V7.156c0-0.449-0.365-0.813-0.813-0.813h-1.232l1.318-1.696
	c0.137-0.179,0.102-0.433-0.076-0.569l-0.645-0.495c-0.18-0.137-0.434-0.103-0.57,0.075l-2.084,2.685H4.313
	C3.864,6.343,3.5,6.707,3.5,7.156v0.813c0,0.449,0.364,0.813,0.813,0.813h6.193l-1.892,2.438H4.313
	c-0.448,0-0.813,0.363-0.813,0.813v0.813c0,0.447,0.364,0.813,0.813,0.813h2.409l-1.317,1.696c-0.136,0.178-0.103,0.434,0.076,0.57
	l0.645,0.494c0.178,0.135,0.433,0.102,0.569-0.076l2.084-2.685h6.909c0.447,0,0.813-0.365,0.813-0.813v-0.813
	c0-0.449-0.365-0.813-0.813-0.813H10.67l1.893-2.438H15.688z"/>
</svg>
