<?xml version="1.0" encoding="utf-8"?>
<!-- Generator: Adobe Illustrator 16.0.0, SVG Export Plug-In . SVG Version: 6.00 Build 0)  -->
<!DOCTYPE svg PUBLIC "-//W3C//DTD SVG 1.1//EN" "http://www.w3.org/Graphics/SVG/1.1/DTD/svg11.dtd">
<svg version="1.1" id="레이어_1" xmlns="http://www.w3.org/2000/svg" xmlns:xlink="http://www.w3.org/1999/xlink" x="0px"
	 y="0px" width="24px" height="24px" viewBox="0 0 24 24" enable-background="new 0 0 24 24" xml:space="preserve">
<g>
	<path fill="#FFFFFF" d="M21.592,2H2.408C1.081,2,0,3.202,0,4.681v14.639C0,20.798,1.081,22,2.408,22h19.184
		C22.919,22,24,20.798,24,19.319V4.681C24,3.202,22.919,2,21.592,2z M22.5,19.015c0,0.794-0.588,1.44-1.308,1.44H2.808
		c-0.72,0-1.308-0.646-1.308-1.44V4.985c0-0.794,0.588-1.44,1.308-1.44h18.385c0.72,0,1.308,0.646,1.308,1.44V19.015z"/>
	<path fill="#FFFFFF" d="M12.784,7.135c-0.431-0.571-1.139-0.571-1.57,0l-3.277,4.336c-0.432,0.572-0.24,1.041,0.427,1.041h1.987
		c-0.108,0.203-0.188,0.43-0.188,0.683v2.734c0,0.749,0.546,1.367,1.211,1.367h1.249c0.667,0,1.212-0.618,1.212-1.367v-2.734
		c0-0.253-0.079-0.479-0.188-0.683h1.989c0.667,0,0.858-0.469,0.427-1.041L12.784,7.135z"/>
</g>
</svg>
