<?xml version="1.0" encoding="utf-8"?>
<!-- Generator: Adobe Illustrator 16.0.0, SVG Export Plug-In . SVG Version: 6.00 Build 0)  -->
<!DOCTYPE svg PUBLIC "-//W3C//DTD SVG 1.1//EN" "http://www.w3.org/Graphics/SVG/1.1/DTD/svg11.dtd" [
	<!ENTITY ns_flows "http://ns.adobe.com/Flows/1.0/">
	<!ENTITY ns_extend "http://ns.adobe.com/Extensibility/1.0/">
	<!ENTITY ns_ai "http://ns.adobe.com/AdobeIllustrator/10.0/">
	<!ENTITY ns_graphs "http://ns.adobe.com/Graphs/1.0/">
]>
<svg version="1.1" id="레이어_1" xmlns:x="&ns_extend;" xmlns:i="&ns_ai;" xmlns:graph="&ns_graphs;"
	 xmlns="http://www.w3.org/2000/svg" xmlns:xlink="http://www.w3.org/1999/xlink" xmlns:a="http://ns.adobe.com/AdobeSVGViewerExtensions/3.0/"
	 x="0px" y="0px" width="20px" height="20px" viewBox="262.5 -20 20 20" style="enable-background:new 262.5 -20 20 20;"
	 xml:space="preserve">
<path style="fill:#FFD400;" d="M272.5-20c-5.523,0-10,4.477-10,10s4.477,10,10,10s10-4.477,10-10S278.023-20,272.5-20z M276.67-6
	h-8.34v-1.201h8.34V-6z M277.021-11.679c-0.342,0.155-0.352,0.53-0.352,0.872v2.809h-8.34v-2.809c0-0.342-0.01-0.717-0.352-0.872
	c-0.283-0.122-0.479-0.403-0.479-0.722c0-0.441,0.371-0.802,0.83-0.802c0.625,0,1.113,0.675,0.664,1.28
	c-0.215,0.305-0.166,0.488-0.01,0.699c0.313,0.45,0.771,0.826,1.436,0.826c1.045,0,1.602-0.835,1.719-1.543
	c0.039-0.244,0.059-0.427-0.186-0.656c-0.166-0.155-0.283-0.361-0.283-0.605c0-0.441,0.371-0.797,0.83-0.797s0.83,0.356,0.83,0.797
	c0,0.244-0.117,0.45-0.283,0.605c-0.244,0.229-0.225,0.413-0.186,0.656c0.117,0.708,0.674,1.543,1.719,1.543
	c0.664,0,1.123-0.375,1.436-0.826c0.156-0.211,0.205-0.394-0.01-0.699c-0.449-0.604,0.039-1.28,0.664-1.28
	c0.459,0,0.83,0.361,0.83,0.802C277.5-12.082,277.305-11.801,277.021-11.679z"/>
</svg>
