<?xml version="1.0" encoding="utf-8"?>
<!-- Generator: Adobe Illustrator 16.0.0, SVG Export Plug-In . SVG Version: 6.00 Build 0)  -->
<!DOCTYPE svg PUBLIC "-//W3C//DTD SVG 1.1//EN" "http://www.w3.org/Graphics/SVG/1.1/DTD/svg11.dtd">
<svg version="1.1" id="레이어_1" xmlns="http://www.w3.org/2000/svg" xmlns:xlink="http://www.w3.org/1999/xlink" x="0px"
	 y="0px" width="12px" height="16px" viewBox="0 0 12 16" enable-background="new 0 0 12 16" xml:space="preserve">
<path fill-rule="evenodd" clip-rule="evenodd" fill="#FFFFFF" d="M10.718,16c-3.146,0-6.291,0-9.436,0
	c-0.058-0.02-0.115-0.041-0.174-0.057c-0.638-0.172-1.102-0.746-1.104-1.407c-0.006-2.358-0.006-4.717,0-7.075
	C0.007,6.748,0.539,6.14,1.246,6.029C1.49,5.991,1.741,5.999,2,5.986c0-0.06,0-0.116,0-0.172c0-0.63-0.005-1.26,0.002-1.89
	c0.02-1.671,1.128-3.189,2.715-3.707C5.021,0.118,5.343,0.071,5.656,0c0.229,0,0.457,0,0.687,0c0.082,0.014,0.163,0.028,0.244,0.042
	c2.017,0.334,3.409,1.975,3.411,4.023c0.001,0.588,0,1.176,0,1.765c0,0.055,0,0.109,0,0.171c0.196,0,0.367-0.003,0.539,0.001
	c0.796,0.02,1.455,0.664,1.457,1.46c0.008,2.357,0.007,4.716,0.001,7.074c-0.002,0.616-0.404,1.16-0.985,1.37
	C10.914,15.94,10.814,15.969,10.718,16z M3.343,5.99c1.781,0,3.544,0,5.301,0c0-0.783,0-1.557-0.001-2.331
	c0-0.041-0.013-0.082-0.019-0.124c-0.22-1.39-1.62-2.404-3.005-2.174C4.262,1.586,3.344,2.659,3.336,4.033
	c-0.003,0.604,0,1.208,0,1.812C3.336,5.89,3.34,5.936,3.343,5.99z M5.336,11.982c0,0.063-0.001,0.125,0,0.188
	c0,0.183-0.006,0.364,0.004,0.546c0.018,0.349,0.315,0.621,0.663,0.618c0.343-0.003,0.644-0.27,0.654-0.608
	c0.014-0.463,0.01-0.926,0.003-1.39c-0.001-0.126,0.032-0.204,0.139-0.282c0.494-0.364,0.664-1.001,0.432-1.562
	c-0.229-0.556-0.795-0.887-1.39-0.813C5.292,8.746,4.854,9.128,4.713,9.661c-0.14,0.526,0.046,1.071,0.492,1.396
	c0.103,0.074,0.137,0.149,0.132,0.27C5.329,11.545,5.336,11.764,5.336,11.982z"/>
</svg>
