<?xml version="1.0" encoding="utf-8"?>
<!-- Generator: Adobe Illustrator 16.0.0, SVG Export Plug-In . SVG Version: 6.00 Build 0)  -->
<!DOCTYPE svg PUBLIC "-//W3C//DTD SVG 1.1//EN" "http://www.w3.org/Graphics/SVG/1.1/DTD/svg11.dtd">
<svg version="1.1" id="레이어_1" xmlns="http://www.w3.org/2000/svg" xmlns:xlink="http://www.w3.org/1999/xlink" x="0px"
	 y="0px" width="530px" height="30px" viewBox="0 0 530 30" enable-background="new 0 0 530 30" xml:space="preserve">
<rect opacity="0.05" fill="#FFFFFF" width="530" height="30"/>
<path fill="#222222" d="M528,8c1.104,0,2,1.254,2,2.8V0H0v10.8C0,9.254,0.896,8,2,8s2,1.254,2,2.8v8.4C4,20.746,3.104,22,2,22
	s-2-1.254-2-2.8V30h530V19.2c0,1.546-0.896,2.8-2,2.8s-2-1.254-2-2.8v-8.4C526,9.254,526.896,8,528,8z M11.623,19.2
	c0,1.546-0.896,2.8-2,2.8s-2-1.254-2-2.8v-8.4c0-1.546,0.896-2.8,2-2.8s2,1.254,2,2.8V19.2z M19.247,19.2c0,1.546-0.896,2.8-2,2.8
	s-2-1.254-2-2.8v-8.4c0-1.546,0.896-2.8,2-2.8s2,1.254,2,2.8V19.2z M26.87,19.2c0,1.546-0.896,2.8-2,2.8s-2-1.254-2-2.8v-8.4
	c0-1.546,0.896-2.8,2-2.8s2,1.254,2,2.8V19.2z M34.493,19.2c0,1.546-0.896,2.8-2,2.8s-2-1.254-2-2.8v-8.4c0-1.546,0.896-2.8,2-2.8
	s2,1.254,2,2.8V19.2z M42.116,19.2c0,1.546-0.896,2.8-2,2.8s-2-1.254-2-2.8v-8.4c0-1.546,0.896-2.8,2-2.8s2,1.254,2,2.8V19.2z
	 M49.739,19.2c0,1.546-0.896,2.8-2,2.8s-2-1.254-2-2.8v-8.4c0-1.546,0.896-2.8,2-2.8s2,1.254,2,2.8V19.2z M57.362,19.2
	c0,1.546-0.896,2.8-2,2.8s-2-1.254-2-2.8v-8.4c0-1.546,0.896-2.8,2-2.8s2,1.254,2,2.8V19.2z M64.985,19.2c0,1.546-0.896,2.8-2,2.8
	s-2-1.254-2-2.8v-8.4c0-1.546,0.896-2.8,2-2.8s2,1.254,2,2.8V19.2z M72.609,19.2c0,1.546-0.896,2.8-2,2.8s-2-1.254-2-2.8v-8.4
	c0-1.546,0.896-2.8,2-2.8s2,1.254,2,2.8V19.2z M80.232,19.2c0,1.546-0.896,2.8-2,2.8s-2-1.254-2-2.8v-8.4c0-1.546,0.896-2.8,2-2.8
	s2,1.254,2,2.8V19.2z M87.855,19.2c0,1.546-0.896,2.8-2,2.8s-2-1.254-2-2.8v-8.4c0-1.546,0.896-2.8,2-2.8s2,1.254,2,2.8V19.2z
	 M95.478,19.2c0,1.546-0.896,2.8-2,2.8s-2-1.254-2-2.8v-8.4c0-1.546,0.896-2.8,2-2.8s2,1.254,2,2.8V19.2z M103.102,19.2
	c0,1.546-0.896,2.8-2,2.8s-2-1.254-2-2.8v-8.4c0-1.546,0.896-2.8,2-2.8s2,1.254,2,2.8V19.2z M110.725,19.2c0,1.546-0.896,2.8-2,2.8
	s-2-1.254-2-2.8v-8.4c0-1.546,0.896-2.8,2-2.8s2,1.254,2,2.8V19.2z M118.348,19.2c0,1.546-0.896,2.8-2,2.8s-2-1.254-2-2.8v-8.4
	c0-1.546,0.896-2.8,2-2.8s2,1.254,2,2.8V19.2z M125.971,19.2c0,1.546-0.896,2.8-2,2.8s-2-1.254-2-2.8v-8.4c0-1.546,0.896-2.8,2-2.8
	s2,1.254,2,2.8V19.2z M133.594,19.2c0,1.546-0.896,2.8-2,2.8s-2-1.254-2-2.8v-8.4c0-1.546,0.896-2.8,2-2.8s2,1.254,2,2.8V19.2z
	 M141.217,19.2c0,1.546-0.896,2.8-2,2.8s-2-1.254-2-2.8v-8.4c0-1.546,0.896-2.8,2-2.8s2,1.254,2,2.8V19.2z M148.841,19.2
	c0,1.546-0.896,2.8-2,2.8s-2-1.254-2-2.8v-8.4c0-1.546,0.896-2.8,2-2.8s2,1.254,2,2.8V19.2z M156.464,19.2c0,1.546-0.896,2.8-2,2.8
	s-2-1.254-2-2.8v-8.4c0-1.546,0.896-2.8,2-2.8s2,1.254,2,2.8V19.2z M164.087,19.2c0,1.546-0.896,2.8-2,2.8s-2-1.254-2-2.8v-8.4
	c0-1.546,0.896-2.8,2-2.8s2,1.254,2,2.8V19.2z M171.71,19.2c0,1.546-0.896,2.8-2,2.8s-2-1.254-2-2.8v-8.4c0-1.546,0.896-2.8,2-2.8
	s2,1.254,2,2.8V19.2z M179.333,19.2c0,1.546-0.896,2.8-2,2.8s-2-1.254-2-2.8v-8.4c0-1.546,0.896-2.8,2-2.8s2,1.254,2,2.8V19.2z
	 M186.957,19.2c0,1.546-0.896,2.8-2,2.8s-2-1.254-2-2.8v-8.4c0-1.546,0.896-2.8,2-2.8s2,1.254,2,2.8V19.2z M194.58,19.2
	c0,1.546-0.896,2.8-2,2.8s-2-1.254-2-2.8v-8.4c0-1.546,0.896-2.8,2-2.8s2,1.254,2,2.8V19.2z M202.203,19.2c0,1.546-0.896,2.8-2,2.8
	s-2-1.254-2-2.8v-8.4c0-1.546,0.896-2.8,2-2.8s2,1.254,2,2.8V19.2z M209.826,19.2c0,1.546-0.896,2.8-2,2.8s-2-1.254-2-2.8v-8.4
	c0-1.546,0.896-2.8,2-2.8s2,1.254,2,2.8V19.2z M217.449,19.2c0,1.546-0.896,2.8-2,2.8s-2-1.254-2-2.8v-8.4c0-1.546,0.896-2.8,2-2.8
	s2,1.254,2,2.8V19.2z M225.072,19.2c0,1.546-0.896,2.8-2,2.8s-2-1.254-2-2.8v-8.4c0-1.546,0.896-2.8,2-2.8s2,1.254,2,2.8V19.2z
	 M232.696,19.2c0,1.546-0.896,2.8-2,2.8s-2-1.254-2-2.8v-8.4c0-1.546,0.896-2.8,2-2.8s2,1.254,2,2.8V19.2z M240.319,19.2
	c0,1.546-0.896,2.8-2,2.8s-2-1.254-2-2.8v-8.4c0-1.546,0.896-2.8,2-2.8s2,1.254,2,2.8V19.2z M247.942,19.2c0,1.546-0.896,2.8-2,2.8
	s-2-1.254-2-2.8v-8.4c0-1.546,0.896-2.8,2-2.8s2,1.254,2,2.8V19.2z M255.565,19.2c0,1.546-0.896,2.8-2,2.8s-2-1.254-2-2.8v-8.4
	c0-1.546,0.896-2.8,2-2.8s2,1.254,2,2.8V19.2z M263.188,19.2c0,1.546-0.896,2.8-2,2.8s-2-1.254-2-2.8v-8.4c0-1.546,0.896-2.8,2-2.8
	s2,1.254,2,2.8V19.2z M270.812,19.2c0,1.546-0.896,2.8-2,2.8s-2-1.254-2-2.8v-8.4c0-1.546,0.896-2.8,2-2.8s2,1.254,2,2.8V19.2z
	 M278.435,19.2c0,1.546-0.896,2.8-2,2.8s-2-1.254-2-2.8v-8.4c0-1.546,0.896-2.8,2-2.8s2,1.254,2,2.8V19.2z M286.058,19.2
	c0,1.546-0.896,2.8-2,2.8s-2-1.254-2-2.8v-8.4c0-1.546,0.896-2.8,2-2.8s2,1.254,2,2.8V19.2z M293.682,19.2c0,1.546-0.896,2.8-2,2.8
	c-1.105,0-2-1.254-2-2.8v-8.4c0-1.546,0.895-2.8,2-2.8c1.104,0,2,1.254,2,2.8V19.2z M301.305,19.2c0,1.546-0.896,2.8-2,2.8
	s-2-1.254-2-2.8v-8.4c0-1.546,0.896-2.8,2-2.8s2,1.254,2,2.8V19.2z M308.928,19.2c0,1.546-0.896,2.8-2,2.8s-2-1.254-2-2.8v-8.4
	c0-1.546,0.896-2.8,2-2.8s2,1.254,2,2.8V19.2z M316.551,19.2c0,1.546-0.896,2.8-2,2.8s-2-1.254-2-2.8v-8.4c0-1.546,0.896-2.8,2-2.8
	s2,1.254,2,2.8V19.2z M324.174,19.2c0,1.546-0.896,2.8-2,2.8s-2-1.254-2-2.8v-8.4c0-1.546,0.896-2.8,2-2.8s2,1.254,2,2.8V19.2z
	 M331.797,19.2c0,1.546-0.896,2.8-2,2.8s-2-1.254-2-2.8v-8.4c0-1.546,0.896-2.8,2-2.8s2,1.254,2,2.8V19.2z M339.42,19.2
	c0,1.546-0.896,2.8-2,2.8s-2-1.254-2-2.8v-8.4c0-1.546,0.896-2.8,2-2.8s2,1.254,2,2.8V19.2z M347.044,19.2c0,1.546-0.896,2.8-2,2.8
	s-2-1.254-2-2.8v-8.4c0-1.546,0.896-2.8,2-2.8s2,1.254,2,2.8V19.2z M354.667,19.2c0,1.546-0.896,2.8-2,2.8s-2-1.254-2-2.8v-8.4
	c0-1.546,0.896-2.8,2-2.8s2,1.254,2,2.8V19.2z M362.29,19.2c0,1.546-0.896,2.8-2,2.8s-2-1.254-2-2.8v-8.4c0-1.546,0.896-2.8,2-2.8
	s2,1.254,2,2.8V19.2z M369.913,19.2c0,1.546-0.896,2.8-2,2.8s-2-1.254-2-2.8v-8.4c0-1.546,0.896-2.8,2-2.8s2,1.254,2,2.8V19.2z
	 M377.536,19.2c0,1.546-0.896,2.8-2,2.8s-2-1.254-2-2.8v-8.4c0-1.546,0.896-2.8,2-2.8s2,1.254,2,2.8V19.2z M385.159,19.2
	c0,1.546-0.896,2.8-2,2.8s-2-1.254-2-2.8v-8.4c0-1.546,0.896-2.8,2-2.8s2,1.254,2,2.8V19.2z M392.782,19.2c0,1.546-0.896,2.8-2,2.8
	s-2-1.254-2-2.8v-8.4c0-1.546,0.896-2.8,2-2.8s2,1.254,2,2.8V19.2z M400.406,19.2c0,1.546-0.896,2.8-2,2.8s-2-1.254-2-2.8v-8.4
	c0-1.546,0.896-2.8,2-2.8s2,1.254,2,2.8V19.2z M408.029,19.2c0,1.546-0.896,2.8-2,2.8s-2-1.254-2-2.8v-8.4c0-1.546,0.896-2.8,2-2.8
	s2,1.254,2,2.8V19.2z M415.652,19.2c0,1.546-0.896,2.8-2,2.8s-2-1.254-2-2.8v-8.4c0-1.546,0.896-2.8,2-2.8s2,1.254,2,2.8V19.2z
	 M423.275,19.2c0,1.546-0.896,2.8-2,2.8s-2-1.254-2-2.8v-8.4c0-1.546,0.896-2.8,2-2.8s2,1.254,2,2.8V19.2z M430.898,19.2
	c0,1.546-0.896,2.8-2,2.8s-2-1.254-2-2.8v-8.4c0-1.546,0.896-2.8,2-2.8s2,1.254,2,2.8V19.2z M438.521,19.2c0,1.546-0.896,2.8-2,2.8
	s-2-1.254-2-2.8v-8.4c0-1.546,0.896-2.8,2-2.8s2,1.254,2,2.8V19.2z M446.145,19.2c0,1.546-0.896,2.8-2,2.8s-2-1.254-2-2.8v-8.4
	c0-1.546,0.896-2.8,2-2.8s2,1.254,2,2.8V19.2z M453.769,19.2c0,1.546-0.896,2.8-2,2.8s-2-1.254-2-2.8v-8.4c0-1.546,0.896-2.8,2-2.8
	s2,1.254,2,2.8V19.2z M461.392,19.2c0,1.546-0.896,2.8-2,2.8s-2-1.254-2-2.8v-8.4c0-1.546,0.896-2.8,2-2.8s2,1.254,2,2.8V19.2z
	 M469.015,19.2c0,1.546-0.896,2.8-2,2.8s-2-1.254-2-2.8v-8.4c0-1.546,0.896-2.8,2-2.8s2,1.254,2,2.8V19.2z M476.638,19.2
	c0,1.546-0.896,2.8-2,2.8s-2-1.254-2-2.8v-8.4c0-1.546,0.896-2.8,2-2.8s2,1.254,2,2.8V19.2z M484.261,19.2c0,1.546-0.896,2.8-2,2.8
	s-2-1.254-2-2.8v-8.4c0-1.546,0.896-2.8,2-2.8s2,1.254,2,2.8V19.2z M491.884,19.2c0,1.546-0.896,2.8-2,2.8s-2-1.254-2-2.8v-8.4
	c0-1.546,0.896-2.8,2-2.8s2,1.254,2,2.8V19.2z M499.507,19.2c0,1.546-0.896,2.8-2,2.8s-2-1.254-2-2.8v-8.4c0-1.546,0.896-2.8,2-2.8
	s2,1.254,2,2.8V19.2z M507.131,19.2c0,1.546-0.896,2.8-2,2.8s-2-1.254-2-2.8v-8.4c0-1.546,0.896-2.8,2-2.8s2,1.254,2,2.8V19.2z
	 M514.754,19.2c0,1.546-0.896,2.8-2,2.8s-2-1.254-2-2.8v-8.4c0-1.546,0.896-2.8,2-2.8s2,1.254,2,2.8V19.2z M522.377,19.2
	c0,1.546-0.896,2.8-2,2.8s-2-1.254-2-2.8v-8.4c0-1.546,0.896-2.8,2-2.8s2,1.254,2,2.8V19.2z"/>
</svg>
