<?xml version="1.0" encoding="utf-8"?>
<!-- Generator: Adobe Illustrator 16.0.0, SVG Export Plug-In . SVG Version: 6.00 Build 0)  -->
<!DOCTYPE svg PUBLIC "-//W3C//DTD SVG 1.1//EN" "http://www.w3.org/Graphics/SVG/1.1/DTD/svg11.dtd">
<svg version="1.1" id="레이어_1" xmlns="http://www.w3.org/2000/svg" xmlns:xlink="http://www.w3.org/1999/xlink" x="0px"
	 y="0px" width="70px" height="70px" viewBox="0 0 70 70" enable-background="new 0 0 70 70" xml:space="preserve">
<g>
	<path fill-rule="evenodd" clip-rule="evenodd" fill="#FFFFFF" d="M70,20.511c0,12.942,0,25.885,0,38.828
		c-0.149,0.569-0.262,1.151-0.454,1.705c-1.187,3.42-4.258,5.538-8.032,5.539c-17.676,0.003-35.352,0.001-53.028,0.001
		c-0.182,0-0.364,0.001-0.546-0.008c-2.586-0.13-4.673-1.22-6.272-3.253C0.742,62.148,0.309,60.771,0,59.339
		c0-12.943,0-25.886,0-38.828c0.034-0.084,0.083-0.164,0.102-0.251c0.974-4.528,4.024-6.995,8.656-6.995
		c3.006-0.001,6.013-0.031,9.019,0.019c0.914,0.015,1.409-0.31,1.771-1.137c0.719-1.645,1.529-3.25,2.303-4.871
		c1.22-2.556,3.248-3.848,6.077-3.853c4.783-0.009,9.566-0.009,14.349,0c2.832,0.005,4.856,1.309,6.079,3.856
		c0.806,1.682,1.616,3.361,2.388,5.059c0.304,0.667,0.736,0.945,1.48,0.938c3.188-0.028,6.378-0.036,9.565-0.004
		c2.834,0.028,5.08,1.241,6.747,3.528C69.343,17.91,69.71,19.195,70,20.511z M34.974,61.116c8.817,0,17.634,0.001,26.451-0.001
		c2.006-0.001,3.104-1.083,3.104-3.066c0.003-12.075,0.003-24.149,0.001-36.225c-0.001-1.996-1.091-3.088-3.081-3.09
		c-3.144-0.005-6.288,0.002-9.433-0.002c-2.83-0.004-4.865-1.284-6.092-3.836c-0.828-1.723-1.656-3.444-2.456-5.18
		c-0.274-0.596-0.678-0.838-1.332-0.836c-4.693,0.016-9.387,0.016-14.079,0c-0.656-0.002-1.056,0.248-1.33,0.843
		c-0.78,1.693-1.604,3.367-2.397,5.056c-1.241,2.638-3.306,3.962-6.228,3.955c-3.121-0.007-6.242-0.002-9.363-0.001
		c-2.233,0-3.271,1.028-3.271,3.243c-0.001,11.961-0.001,23.923,0,35.884c0,2.223,1.034,3.255,3.259,3.255
		C17.477,61.116,26.225,61.116,34.974,61.116z"/>
	<path fill-rule="evenodd" clip-rule="evenodd" fill="#FFFFFF" d="M52.087,38.46c0.102,9.348-7.544,17.081-16.99,17.184
		c-9.348,0.103-17.081-7.543-17.184-16.989c-0.103-9.348,7.543-17.081,16.99-17.185C44.25,21.368,51.983,29.014,52.087,38.46z
		 M23.381,38.553c-0.003,6.379,5.214,11.607,11.598,11.623c6.375,0.016,11.612-5.194,11.641-11.58
		c0.027-6.399-5.229-11.667-11.632-11.657C28.605,26.947,23.384,32.172,23.381,38.553z"/>
	<path fill-rule="evenodd" clip-rule="evenodd" fill="#FFFFFF" d="M59.023,29.638c-1.796,0-3.563,0-5.379,0c0-1.781,0-3.563,0-5.392
		c1.775,0,3.558,0,5.379,0C59.023,26.04,59.023,27.823,59.023,29.638z"/>
</g>
</svg>
