<?xml version="1.0" encoding="utf-8"?>
<!-- Generator: Adobe Illustrator 16.0.0, SVG Export Plug-In . SVG Version: 6.00 Build 0)  -->
<!DOCTYPE svg PUBLIC "-//W3C//DTD SVG 1.1//EN" "http://www.w3.org/Graphics/SVG/1.1/DTD/svg11.dtd" [
	<!ENTITY ns_flows "http://ns.adobe.com/Flows/1.0/">
	<!ENTITY ns_extend "http://ns.adobe.com/Extensibility/1.0/">
	<!ENTITY ns_ai "http://ns.adobe.com/AdobeIllustrator/10.0/">
	<!ENTITY ns_graphs "http://ns.adobe.com/Graphs/1.0/">
]>
<svg version="1.1" id="레이어_1" xmlns:x="&ns_extend;" xmlns:i="&ns_ai;" xmlns:graph="&ns_graphs;"
	 xmlns="http://www.w3.org/2000/svg" xmlns:xlink="http://www.w3.org/1999/xlink" xmlns:a="http://ns.adobe.com/AdobeSVGViewerExtensions/3.0/"
	 x="0px" y="0px" width="15.833px" height="15.833px" viewBox="0 0 15.833 15.833"
	 style="enable-background:new 0 0 15.833 15.833;" xml:space="preserve">
<g>
	<polygon style="fill:none;" points="3.834,4.833 1,4.833 1,14.833 11,14.833 11,12 3.834,12 	"/>
	<polygon style="fill:none;" points="12,11 14.833,11 14.833,1 4.834,1 4.834,3.833 12,3.833 	"/>
	<rect x="4.834" y="4.833" style="fill:none;" width="6.166" height="6.167"/>
	<polygon style="fill:#FFFFFF;" points="15.833,0 3.834,0 3.834,3.833 4.834,3.833 4.834,1 14.833,1 14.833,11 12,11 12,12 
		15.833,12 	"/>
	<polygon style="fill:#FFFFFF;" points="11,14.833 1,14.833 1,4.833 3.834,4.833 3.834,3.833 0,3.833 0,15.833 12,15.833 12,12 
		11,12 	"/>
	<polygon style="fill:#FFFFFF;" points="11,4.833 11,11 12,11 12,3.833 4.834,3.833 4.834,4.833 	"/>
	<rect x="3.834" y="3.833" style="fill:#FFFFFF;" width="1" height="1"/>
	<rect x="11" y="11" style="fill:#FFFFFF;" width="1" height="1"/>
</g>
</svg>
